<?xml version="1.0" encoding="UTF-8"?>
<svg width="22px" height="19px" viewBox="0 0 22 19" version="1.1" xmlns="http://www.w3.org/2000/svg" xmlns:xlink="http://www.w3.org/1999/xlink">
    <!-- Generator: sketchtool 57.1 (101010) - https://sketch.com -->
    <title>419C2BB0-B64A-4E2E-A4A8-C506995F4484</title>
    <desc>Created with sketchtool.</desc>
    <g id="Asset-Artboard-Page" stroke="none" stroke-width="1" fill="none" fill-rule="evenodd">
        <g id="back_mobile" fill="#FFFFFF">
            <g id="left-arrow">
                <path d="M20.7633496,7.56083692 L20.7976911,7.56846963 L6.07629268,7.56846963 L10.7041626,2.85599713 C10.9307805,2.62592539 11.0550894,2.31425634 11.0550894,1.98714012 C11.0550894,1.66002391 10.9307805,1.35053563 10.7041626,1.1199187 L9.98406504,0.387905308 C9.75762602,0.157833572 9.45588618,0.0306217121 9.13411382,0.0306217121 C8.8121626,0.0306217121 8.5102439,0.156924916 8.28380488,0.386996652 L0.350747967,8.44659493 C0.123414634,8.67757532 -0.000894308943,8.98524629 -4.79195158e-06,9.31254424 C-0.000894308943,9.64165949 0.123414634,9.9495122 0.350747967,10.1801291 L8.28380488,18.2404543 C8.5102439,18.4703443 8.81198374,18.5968293 9.13411382,18.5968293 C9.45588618,18.5968293 9.75762602,18.4701626 9.98406504,18.2404543 L10.7041626,17.5084409 C10.9307805,17.2787327 11.0550894,16.9719703 11.0550894,16.6448541 C11.0550894,16.3179197 10.9307805,16.0273314 10.7041626,15.7974414 L6.02406504,11.0586179 L20.7798049,11.0586179 C21.4428455,11.0586179 21.9999952,10.4779866 21.9999952,9.80467241 L21.9999952,8.76934959 C21.9999952,8.09603539 21.4263902,7.56083692 20.7633496,7.56083692 Z" id="Path"></path>
            </g>
        </g>
    </g>
</svg>