<?xml version="1.0" encoding="UTF-8"?>
<svg width="22px" height="22px" viewBox="0 0 22 22" version="1.1" xmlns="http://www.w3.org/2000/svg" xmlns:xlink="http://www.w3.org/1999/xlink">
    <!-- Generator: sketchtool 57.1 (101010) - https://sketch.com -->
    <title>22937BB4-7D17-45D3-9E12-8365AA4BEBAB</title>
    <desc>Created with sketchtool.</desc>
    <g id="icons" stroke="none" stroke-width="1" fill="none" fill-rule="evenodd">
        <g id="Icons-/-Elements" transform="translate(-914.000000, -67.000000)">
            <g id="delete" transform="translate(914.000000, 67.000000)">
                <g id="Group-7">
                    <g id="Group-5-Copy" fill="#FF504E">
                        <rect id="Rectangle-Copy-2" x="0" y="0" width="22" height="22" rx="11"></rect>
                    </g>
                    <path d="M11,5 C11.5522847,5 12,5.44771525 12,6 L12,10 L16,10 C16.5522847,10 17,10.4477153 17,11 C17,11.5522847 16.5522847,12 16,12 L12,12 L12,16 C12,16.5522847 11.5522847,17 11,17 C10.4477153,17 10,16.5522847 10,16 L10,12 L6,12 C5.44771525,12 5,11.5522847 5,11 C5,10.4477153 5.44771525,10 6,10 L10,10 L10,6 C10,5.44771525 10.4477153,5 11,5 Z" id="Combined-Shape-Copy-2" fill="#FFFFFF" transform="translate(11.000000, 11.000000) rotate(-315.000000) translate(-11.000000, -11.000000) "></path>
                </g>
            </g>
        </g>
    </g>
</svg>