<?xml version="1.0" encoding="UTF-8"?>
<svg width="17px" height="17px" viewBox="0 0 17 17" version="1.1" xmlns="http://www.w3.org/2000/svg" xmlns:xlink="http://www.w3.org/1999/xlink">
    <!-- Generator: sketchtool 57.1 (101010) - https://sketch.com -->
    <title>8F51328D-98D8-4292-B962-C166274FB54F</title>
    <desc>Created with sketchtool.</desc>
    <g id="news-feed" stroke="none" stroke-width="1" fill="none" fill-rule="evenodd">
        <g transform="translate(-477.000000, -432.000000)" fill="#6E8490" fill-rule="nonzero" id="comment">
            <g transform="translate(477.000000, 432.000000)">
                <path d="M15.3,0 L1.7,0 C0.765,0 0.0085,0.765 0.0085,1.7 L0,17 L3.4,13.6 L15.3,13.6 C16.235,13.6 17,12.835 17,11.9 L17,1.7 C17,0.765 16.235,0 15.3,0 L15.3,0 Z M3.4,5.95 L13.6,5.95 L13.6,7.65 L3.4,7.65 L3.4,5.95 Z M3.4,8.5 L10.2,8.5 L10.2,10.2 L3.4,10.2 L3.4,8.5 Z M3.4,3.4 L13.6,3.4 L13.6,5.1 L3.4,5.1 L3.4,3.4 Z" id="Fill-168"></path>
            </g>
        </g>
    </g>
</svg>