<?xml version="1.0" encoding="UTF-8"?>
<svg width="16px" height="10px" viewBox="0 0 16 10" version="1.1" xmlns="http://www.w3.org/2000/svg" xmlns:xlink="http://www.w3.org/1999/xlink">
    <!-- Generator: sketchtool 57.1 (101010) - https://sketch.com -->
    <title>9C001634-F84E-4DDB-9D88-6691632CA36F</title>
    <desc>Created with sketchtool.</desc>
    <g id="icons" stroke="none" stroke-width="1" fill="none" fill-rule="evenodd">
        <g id="Icons-/-Elements" transform="translate(-1205.000000, -72.000000)" fill="#88A3B2" fill-rule="nonzero">
            <g id="eye" transform="translate(1205.000000, 72.000000)">
                <path d="M7.99754601,0.0247440273 C4.94151329,0.0247440273 2.17014315,1.77834732 0.125153374,4.62666578 C-0.0417177914,4.860022 -0.0417177914,5.18603435 0.125153374,5.41939056 C2.17014315,8.27114073 4.94151329,10.024744 7.99754601,10.024744 C11.0535787,10.024744 13.8249489,8.27114073 15.8699387,5.42282227 C16.0368098,5.18946606 16.0368098,4.8634537 15.8699387,4.63009749 C13.8249489,1.77834732 11.0535787,0.0247440273 7.99754601,0.0247440273 Z M8.21676892,8.54567745 C6.18813906,8.6795141 4.51288344,6.92591081 4.6404908,4.79481952 C4.74519427,3.03778452 6.10306748,1.61362529 7.77832311,1.5038106 C9.80695297,1.36997395 11.4822086,3.12357725 11.3546012,5.25466853 C11.2466258,7.00827182 9.88875256,8.43243106 8.21676892,8.54567745 Z M8.11533742,6.91904739 C7.02249489,6.99111328 6.1194274,6.04739331 6.19141104,4.9012025 C6.24703476,3.95405082 6.9799591,3.18877972 7.88302658,3.12700896 C8.97586912,3.05494307 9.87893661,3.99866304 9.80695297,5.14485384 C9.74805726,6.09543723 9.01513292,6.86070834 8.11533742,6.91904739 Z" id="Shape"></path>
            </g>
        </g>
    </g>
</svg>