<?xml version="1.0" encoding="UTF-8"?>
<svg width="80px" height="60px" viewBox="0 0 80 60" version="1.1" xmlns="http://www.w3.org/2000/svg" xmlns:xlink="http://www.w3.org/1999/xlink">
    <!-- Generator: sketchtool 57.1 (101010) - https://sketch.com -->
    <title>95A2CC21-BB1E-47D9-A710-B5AD08E88DF5</title>
    <desc>Created with sketchtool.</desc>
    <g id="main-page" stroke="none" stroke-width="1" fill="none" fill-rule="evenodd">
        <g id="Desktop" transform="translate(-304.000000, -3588.000000)" fill="#F9F9F9">
            <path d="M304,3625.82235 C304,3610.69341 312.118182,3597.45559 325.590909,3588 L338.2,3598.14327 C332.672727,3600.55014 324.727273,3608.11461 322.481818,3614.64756 C323.345455,3614.30372 325.072727,3613.95989 326.972727,3613.95989 C335.263636,3613.95989 342,3620.32092 342,3629.94842 C342,3639.91977 333.709091,3648 324.036364,3648 C313.5,3648 304,3639.91977 304,3625.82235 Z M346,3625.82235 C346,3610.69341 354.118182,3597.45559 367.590909,3588 L380.2,3598.14327 C374.672727,3600.55014 366.727273,3608.11461 364.481818,3614.64756 C365.345455,3614.30372 367.072727,3613.95989 368.972727,3613.95989 C377.263636,3613.95989 384,3620.32092 384,3629.94842 C384,3639.91977 375.709091,3648 366.036364,3648 C355.5,3648 346,3639.91977 346,3625.82235 Z" id="“-copy-2"></path>
        </g>
    </g>
</svg>