<?xml version="1.0" encoding="UTF-8"?>
<svg width="16px" height="13px" viewBox="0 0 16 13" version="1.1" xmlns="http://www.w3.org/2000/svg" xmlns:xlink="http://www.w3.org/1999/xlink">
    <!-- Generator: sketchtool 57.1 (101010) - https://sketch.com -->
    <title>A24AEE87-6C69-43A0-BB6F-EE8444C4B3DD</title>
    <desc>Created with sketchtool.</desc>
    <g id="icons" stroke="none" stroke-width="1" fill="none" fill-rule="evenodd">
        <g id="Icons-/-Elements" transform="translate(-481.000000, -175.000000)" fill="#FFFFFF">
            <g id="photo" transform="translate(481.000000, 175.000000)">
                <g id="Fill-423">
                    <path d="M5.6,0 L4.136,1.44444444 L1.6,1.44444444 C0.72,1.44444444 0,2.09408333 0,2.88888889 L0,11.5555556 C0,12.35 0.72,13 1.6,13 L14.4,13 C15.28,13 16,12.35 16,11.5555556 L16,2.88888889 C16,2.09408333 15.28,1.44444444 14.4,1.44444444 L11.864,1.44444444 L10.4,0 L5.6,0 L5.6,0 Z M8,10.8333333 C5.792,10.8333333 4,9.21555556 4,7.22222222 C4,5.22852778 5.792,3.61111111 8,3.61111111 C10.208,3.61111111 12,5.22852778 12,7.22222222 C12,9.21555556 10.208,10.8333333 8,10.8333333 L8,10.8333333 Z M8,4.69444444 C9.5465625,4.69444444 10.8,5.82601997 10.8,7.22222222 C10.8,8.61802951 9.5465625,9.75 8,9.75 C6.4534375,9.75 5.2,8.61802951 5.2,7.22222222 C5.2,5.82601997 6.4534375,4.69444444 8,4.69444444"></path>
                </g>
            </g>
        </g>
    </g>
</svg>