<?xml version="1.0" encoding="UTF-8"?>
<svg width="16px" height="16px" viewBox="0 0 16 16" version="1.1" xmlns="http://www.w3.org/2000/svg" xmlns:xlink="http://www.w3.org/1999/xlink">
    <!-- Generator: sketchtool 57.1 (101010) - https://sketch.com -->
    <title>326A7DA6-862B-476B-B95A-0C5AFA993382</title>
    <desc>Created with sketchtool.</desc>
    <g id="dashboard" stroke="none" stroke-width="1" fill="none" fill-rule="evenodd">
        <g id="Mobile-Menu-Search" transform="translate(-75.000000, -255.000000)" fill="#6E8490">
            <path d="M89,255 L77,255 C75.9,255 75,255.9 75,257 L75,269 C75,270.1005 75.9,271 77,271 L89,271 C90.1,271 91,270.1005 91,269 L91,257 C91,255.9 90.1,255 89,255 L89,255 Z M78,262 L88,262 L88,264 L78,264 L78,262 Z M78,266 L84,266 L84,268 L78,268 L78,266 Z M78,258 L88,258 L88,260 L78,260 L78,258 Z" id="Fill-121"></path>
        </g>
    </g>
</svg>