<?xml version="1.0" encoding="UTF-8"?>
<svg width="20px" height="20px" viewBox="0 0 20 20" version="1.1" xmlns="http://www.w3.org/2000/svg" xmlns:xlink="http://www.w3.org/1999/xlink">
    <!-- Generator: sketchtool 52.2 (67145) - http://www.bohemiancoding.com/sketch -->
    <title>31857341-F77F-4D76-9049-C1A90C3AFD8C</title>
    <desc>Created with sketchtool.</desc>
    <g id="plan-practice" stroke="none" stroke-width="1" fill="none" fill-rule="evenodd">
        <g id="Plan-practice-(add-evaluation-popup)-Copy" transform="translate(-494.000000, -417.000000)">
            <g id="Group-8" transform="translate(470.000000, 200.000000)">
                <g id="add_more" transform="translate(24.000000, 217.000000)">
                    <g id="Group">
                        <circle id="Oval" fill="#ffffff" cx="10" cy="10" r="10"></circle>
                        <path d="M9,9 L9,6 C9,5.44771525 9.44771525,5 10,5 C10.5522847,5 11,5.44771525 11,6 L11,9 L14,9 C14.5522847,9 15,9.44771525 15,10 C15,10.5522847 14.5522847,11 14,11 L11,11 L11,14 C11,14.5522847 10.5522847,15 10,15 C9.44771525,15 9,14.5522847 9,14 L9,11 L6,11 C5.44771525,11 5,10.5522847 5,10 C5,9.44771525 5.44771525,9 6,9 L9,9 Z" id="Combined-Shape" fill="#66AF06"></path>
                    </g>
                </g>
            </g>
        </g>
    </g>
</svg>