<?xml version="1.0" encoding="UTF-8"?>
<svg width="22px" height="22px" viewBox="0 0 22 22" version="1.1" xmlns="http://www.w3.org/2000/svg" xmlns:xlink="http://www.w3.org/1999/xlink">
    <!-- Generator: sketchtool 57.1 (101010) - https://sketch.com -->
    <title>7ACFB051-4E34-4DE4-AE67-86B1A1C13FD0</title>
    <desc>Created with sketchtool.</desc>
    <g id="icons" stroke="none" stroke-width="1" fill="none" fill-rule="evenodd">
        <g id="Icons-/-Elements" transform="translate(-1279.000000, -67.000000)" fill="#002C5B" fill-rule="nonzero">
            <g id="favourites" transform="translate(1279.000000, 67.000000)">
                <g id="star">
                    <path d="M21.5065098,9.95958333 C21.930549,9.5205 22.0802353,8.87608333 21.8973333,8.27704167 C21.714,7.678 21.2364706,7.250375 20.6498039,7.159625 L15.4336471,6.35433333 C15.2114902,6.31995833 15.0195294,6.17191667 14.9203137,5.957875 L12.5883137,0.936375 C12.3264706,0.372166667 11.7950196,0.0215416667 11.2027451,0.0215416667 C10.610902,0.0215416667 10.079451,0.372166667 9.81760784,0.936375 L7.48517647,5.95833333 C7.38596078,6.172375 7.19356863,6.32041667 6.97141176,6.35479167 L1.7552549,7.16008333 C1.16901961,7.250375 0.691058824,7.67845833 0.50772549,8.2775 C0.324823529,8.87654167 0.474509804,9.52095833 0.89854902,9.96004167 L4.67262745,13.8687083 C4.83352941,14.0355417 4.90729412,14.2757083 4.86933333,14.510375 L3.97898039,20.029625 C3.90003922,20.5154583 4.01996078,20.988 4.31588235,21.360625 C4.77572549,21.9413333 5.5785098,22.11825 6.22039216,21.7598333 L10.8852549,19.15375 C11.0802353,19.045125 11.3256863,19.0460417 11.5202353,19.15375 L16.1855294,21.7598333 C16.4124314,21.8867917 16.6544314,21.9509583 16.9041961,21.9509583 C17.3601569,21.9509583 17.7923922,21.7355417 18.0896078,21.360625 C18.3859608,20.988 18.505451,20.5145417 18.4265098,20.029625 L17.5357255,14.510375 C17.4977647,14.27525 17.5715294,14.0355417 17.7324314,13.8687083 L21.5065098,9.95958333 Z" id="Path"></path>
                </g>
            </g>
        </g>
    </g>
</svg>