<?xml version="1.0" encoding="UTF-8"?>
<svg width="14px" height="14px" viewBox="0 0 14 14" version="1.1" xmlns="http://www.w3.org/2000/svg" xmlns:xlink="http://www.w3.org/1999/xlink">
    <!-- Generator: sketchtool 57.1 (101010) - https://sketch.com -->
    <title>EF3EF1EE-E6DB-494B-818D-34DAB28B7F8C</title>
    <desc>Created with sketchtool.</desc>
    <g id="all-stars-cricket" stroke="none" stroke-width="1" fill="none" fill-rule="evenodd">
        <g id="All-Stars-Cricket" transform="translate(-1146.000000, -355.000000)" fill="#FFFFFF">
            <g id="Group-5" transform="translate(1111.000000, 342.000000)">
                <g id="resources" transform="translate(35.000000, 13.000000)">
                    <path d="M12.25,0 L1.75,0 C0.7875,0 0,0.7875 0,1.75 L0,12.25 C0,13.2129375 0.7875,14 1.75,14 L12.25,14 C13.2125,14 14,13.2129375 14,12.25 L14,1.75 C14,0.7875 13.2125,0 12.25,0 L12.25,0 Z M2.625,6.125 L11.375,6.125 L11.375,7.875 L2.625,7.875 L2.625,6.125 Z M2.625,9.625 L7.875,9.625 L7.875,11.375 L2.625,11.375 L2.625,9.625 Z M2.625,2.625 L11.375,2.625 L11.375,4.375 L2.625,4.375 L2.625,2.625 Z" id="Fill-121"></path>
                </g>
            </g>
        </g>
    </g>
</svg>