<?xml version="1.0" encoding="UTF-8"?>
<svg width="80px" height="60px" viewBox="0 0 80 60" version="1.1" xmlns="http://www.w3.org/2000/svg" xmlns:xlink="http://www.w3.org/1999/xlink">
    <!-- Generator: sketchtool 57.1 (101010) - https://sketch.com -->
    <title>9AC1FBD7-1DC2-4342-B6BD-817F228397EC</title>
    <desc>Created with sketchtool.</desc>
    <g id="main-page" stroke="none" stroke-width="1" fill="none" fill-rule="evenodd">
        <g id="Desktop" transform="translate(-830.000000, -3767.000000)" fill="#F9F9F9">
            <path d="M830,3804.82235 C830,3789.69341 838.118182,3776.45559 851.590909,3767 L864.2,3777.14327 C858.672727,3779.55014 850.727273,3787.11461 848.481818,3793.64756 C849.345455,3793.30372 851.072727,3792.95989 852.972727,3792.95989 C861.263636,3792.95989 868,3799.32092 868,3808.94842 C868,3818.91977 859.709091,3827 850.036364,3827 C839.5,3827 830,3818.91977 830,3804.82235 Z M872,3804.82235 C872,3789.69341 880.118182,3776.45559 893.590909,3767 L906.2,3777.14327 C900.672727,3779.55014 892.727273,3787.11461 890.481818,3793.64756 C891.345455,3793.30372 893.072727,3792.95989 894.972727,3792.95989 C903.263636,3792.95989 910,3799.32092 910,3808.94842 C910,3818.91977 901.709091,3827 892.036364,3827 C881.5,3827 872,3818.91977 872,3804.82235 Z" id="“-copy-5" transform="translate(870.000000, 3797.000000) scale(-1, -1) translate(-870.000000, -3797.000000) "></path>
        </g>
    </g>
</svg>