<?xml version="1.0" encoding="UTF-8"?>
<svg width="18px" height="18px" viewBox="0 0 18 18" version="1.1" xmlns="http://www.w3.org/2000/svg" xmlns:xlink="http://www.w3.org/1999/xlink">
    <!-- Generator: sketchtool 57.1 (101010) - https://sketch.com -->
    <title>F62F92B9-BD07-4ED1-B01D-51A0A9CCE80B</title>
    <desc>Created with sketchtool.</desc>
    <g id="icons" stroke="none" stroke-width="1" fill="none" fill-rule="evenodd">
        <g id="Icons-/-Elements" transform="translate(-689.000000, -283.000000)" fill="#000000">
            <g id="warning" transform="translate(689.000000, 283.000000)">
                <path d="M8.1,11.7 L9.9,11.7 L9.9,13.5 L8.1,13.5 L8.1,11.7 Z M8.1,4.5 L9.9,4.5 L9.9,9.9 L8.1,9.9 L8.1,4.5 Z M8.991,0 C4.023,0 0,4.032 0,9 C0,13.968 4.023,18 8.991,18 C13.968,18 18,13.968 18,9 C18,4.032 13.968,0 8.991,0 L8.991,0 Z M9,16.2 C5.022,16.2 1.8,12.978 1.8,9 C1.8,5.022 5.022,1.8 9,1.8 C12.978,1.8 16.2,5.022 16.2,9 C16.2,12.978 12.978,16.2 9,16.2 L9,16.2 Z" id="Shape-Copy-2"></path>
            </g>
        </g>
    </g>
</svg>