<?xml version="1.0" encoding="UTF-8"?>
<svg width="20px" height="20px" viewBox="0 0 20 20" version="1.1" xmlns="http://www.w3.org/2000/svg" xmlns:xlink="http://www.w3.org/1999/xlink">
    <!-- Generator: sketchtool 57.1 (101010) - https://sketch.com -->
    <title>B7F635D7-D8F9-4D27-9CEF-1F301DB06135</title>
    <desc>Created with sketchtool.</desc>
    <g id="icons" stroke="none" stroke-width="1" fill="none" fill-rule="evenodd">
        <g id="Icons-/-Elements" transform="translate(-387.000000, -282.000000)" fill="#6E8490">
            <g id="search" transform="translate(387.000000, 282.000000)">
                <path d="M13.8430426,8.46212986 C13.8430426,6.98401224 13.3192041,5.72117341 12.2715115,4.67357548 C11.2238189,3.62597756 9.95369003,3.09501123 8.46108684,3.08066057 C6.96848364,3.06630992 5.69835478,3.59727624 4.65066215,4.67357548 C3.60296953,5.74987472 3.07913107,7.01271355 3.07913107,8.46212986 C3.07913107,9.91154616 3.60296953,11.1815602 4.65066215,12.2722101 C5.69835478,13.36286 6.96848364,13.8866511 8.46108684,13.8435991 C9.95369003,13.8005472 11.2238189,13.2767561 12.2715115,12.2722101 C13.3192041,11.2676642 13.8430426,9.9976501 13.8430426,8.46212986 Z M20,18.4716627 C20,18.8878318 19.8421309,19.2465928 19.5263879,19.5479566 C19.2106449,19.8493204 18.8446756,20 18.4284689,20 C18.0122623,20 17.6606447,19.8493204 17.3736056,19.5479566 L13.2617914,15.436514 C11.826596,16.4267093 10.2263772,16.9217996 8.46108684,16.9217996 C7.31293053,16.9217996 6.21502253,16.6993677 5.16732991,16.2544974 C4.11963728,15.809627 3.22265362,15.2069085 2.47635202,14.4463237 C1.73005043,13.6857389 1.12727741,12.7888363 0.668014886,11.7555891 C0.208752364,10.7223418 -0.0136995833,9.62453303 0.000652370543,8.46212986 C0.0150043243,7.29972668 0.237456272,6.20909314 0.668014886,5.19019653 C1.0985735,4.17129992 1.70134652,3.26722212 2.47635202,2.47793601 C3.25135753,1.68864991 4.14834119,1.08593137 5.16732991,0.669762335 C6.18631863,0.253593296 7.28422662,0.031161457 8.46108684,0.00246014398 C9.63794705,-0.026241169 10.735855,0.19619067 11.7548438,0.669762335 C12.7738325,1.143334 13.6708161,1.74605253 14.4458216,2.47793601 C15.2208272,3.2098195 15.8236002,4.11389729 16.2541588,5.19019653 C16.6847174,6.26649577 16.9071693,7.35712931 16.9215213,8.46212986 C16.9215213,10.2272606 16.4263863,11.8273348 15.4361015,13.2624005 L19.5479157,17.373843 C19.8493067,17.6752068 20,18.041143 20,18.4716627 Z" id="search---fontello"></path>
            </g>
        </g>
    </g>
</svg>