<?xml version="1.0" encoding="UTF-8"?>
<svg width="15px" height="17px" viewBox="0 0 15 17" version="1.1" xmlns="http://www.w3.org/2000/svg" xmlns:xlink="http://www.w3.org/1999/xlink">
    <!-- Generator: sketchtool 57.1 (101010) - https://sketch.com -->
    <title>B9D8DCCA-1FA9-45F1-89F8-8F5F1B732DE7</title>
    <desc>Created with sketchtool.</desc>
    <g id="news-feed" stroke="none" stroke-width="1" fill="none" fill-rule="evenodd">
        <g transform="translate(-954.000000, -3375.000000)" fill="#6E8490" fill-rule="nonzero" id="file">
            <g transform="translate(954.000000, 3375.000000)">
                <g id="paperclip-copy">
                    <path d="M13.9206548,10.1796748 L12.6927281,8.9619808 L7.16724852,3.48279894 C6.148912,2.48051112 4.50510947,2.48353613 3.49058603,3.48960524 C2.47606256,4.49567432 2.47301213,6.12577849 3.48372254,7.13562885 L9.00894794,12.6164492 C9.23493423,12.8406784 9.60149473,12.8406784 9.82760811,12.6164492 C10.0535944,12.3922201 10.0535944,12.0288404 9.82760811,11.8046112 L4.30238271,6.32379084 C3.73728986,5.7634071 3.73728986,4.85502073 4.30238271,4.29463695 C4.8674756,3.7342532 5.78349547,3.7342532 6.34858832,4.29463695 L11.875466,9.7738188 L13.1033928,10.9913868 C14.1207124,12.0006069 14.1203311,13.636509 13.1027572,14.645225 C12.0850562,15.653941 10.4355342,15.6536889 9.41821448,14.6444688 L8.39517524,13.6295767 L2.66518946,7.94734082 L2.25579582,7.54148483 C0.824888134,6.07813454 0.843063644,3.74685743 2.29646828,2.30543847 C3.75,0.86414554 6.10086768,0.846121492 7.57651503,2.26510495 L13.7157674,8.35332284 C13.8620611,8.49827142 14.0752101,8.55486437 14.2748865,8.5018006 C14.4746899,8.44873683 14.6307704,8.29408301 14.6842801,8.09594462 C14.7377898,7.89780623 14.6805942,7.68655945 14.5344275,7.54148483 L8.39517524,1.45339298 C6.4725122,-0.444550959 3.36348462,-0.441021776 1.44527014,1.46133362 C-0.473071432,3.36356301 -0.476630304,6.44668203 1.43726274,8.35332284 L7.57651503,14.4414147 L8.60107952,15.4563068 C10.0786334,16.8636943 12.4202227,16.8402505 13.8686704,15.403369 C15.3172451,13.9666136 15.3402505,11.6445376 13.9206548,10.1796748 L13.9206548,10.1796748 Z" id="Path"></path>
                </g>
            </g>
        </g>
    </g>
</svg>