<?xml version="1.0" encoding="UTF-8"?>
<svg width="18px" height="18px" viewBox="0 0 18 18" version="1.1" xmlns="http://www.w3.org/2000/svg" xmlns:xlink="http://www.w3.org/1999/xlink">
    <!-- Generator: sketchtool 57.1 (101010) - https://sketch.com -->
    <title>F105DBF6-6C49-4F91-9039-1C89879AF61A</title>
    <desc>Created with sketchtool.</desc>
    <g id="icons" stroke="none" stroke-width="1" fill="none" fill-rule="evenodd">
        <g id="Icons-/-Elements" transform="translate(-508.000000, -283.000000)" fill="#51D868">
            <g id="success" transform="translate(508.000000, 283.000000)">
                <path d="M8.99974952,0 C4.02972364,0 0,4.02972364 0,8.99974952 C0,13.9697754 4.01970443,18 8.99974952,18 C13.9697754,18 18,13.9697754 18,8.99974952 C18,4.02972364 13.9697754,0 8.99974952,0 L8.99974952,0 Z M8.99974952,15.999666 C5.12983218,15.999666 1.99983301,12.8701678 1.99983301,8.99974952 C1.99983301,5.12983218 5.12983218,1.99983301 8.99974952,1.99983301 C12.8696669,1.99983301 15.999666,5.12983218 15.999666,8.99974952 C15.999666,12.8701678 12.8696669,15.999666 8.99974952,15.999666 L8.99974952,15.999666 Z M7.53995157,10.5296819 L5.40986892,8.40010019 L4.34983719,9.45963096 L7.52993237,12.6397261 L13.5299324,6.63972614 L12.4699006,5.57969441 L7.53995157,10.5296819 L7.53995157,10.5296819 Z" id="Fill-4-Copy-2"></path>
            </g>
        </g>
    </g>
</svg>