<?xml version="1.0" encoding="UTF-8"?>
<svg width="17px" height="17px" viewBox="0 0 17 17" version="1.1" xmlns="http://www.w3.org/2000/svg" xmlns:xlink="http://www.w3.org/1999/xlink">
    <!-- Generator: sketchtool 57.1 (101010) - https://sketch.com -->
    <title>267E139D-3F9D-4E08-B928-596EB92341B6</title>
    <desc>Created with sketchtool.</desc>
    <g id="news-feed" stroke="none" stroke-width="1" fill="none" fill-rule="evenodd">
        <g transform="translate(-1053.000000, -165.000000)" fill="#FFFFFF" id="Group-19">
            <g transform="translate(1023.000000, 149.000000)">
                <g id="create_post" transform="translate(30.000000, 16.000000)">
                    <path d="M8.49881961,0 L8.49881961,1.88936111 L1.88862658,1.88936111 L1.88862658,15.1111111 L15.1090126,15.1111111 L15.1090126,8.5 L16.9976392,8.5 L16.9976392,15.1111111 C16.9976392,16.15 16.1477573,17 15.1090126,17 L15.1090126,17 L1.88862658,17 C0.840438828,17 0,16.15 0,15.1111111 L0,15.1111111 L0,1.88936111 C0,0.85 0.840438828,0 1.88862658,0 L1.88862658,0 L8.49881961,0 Z M12.264934,2.17780188 L14.8225858,4.73580887 L7.27921821,12.2798831 L4.72156645,12.2798831 L4.72156645,9.7218761 L12.264934,2.17780188 Z M14.2428514,0.199268745 C14.5088472,-0.0664229148 14.9385327,-0.0664229148 15.2045285,0.199268745 L15.2045285,0.199268745 L16.8005032,1.79580617 C17.0664989,2.0618389 17.0664989,2.49158407 16.8005032,2.75727573 L16.8005032,2.75727573 L15.5523691,4.00558315 L12.9947173,1.44757616 Z" id="Fill-117"></path>
                </g>
            </g>
        </g>
    </g>
</svg>