<?xml version="1.0" encoding="UTF-8"?>
<svg width="18px" height="17px" viewBox="0 0 18 17" version="1.1" xmlns="http://www.w3.org/2000/svg" xmlns:xlink="http://www.w3.org/1999/xlink">
    <!-- Generator: sketchtool 57.1 (101010) - https://sketch.com -->
    <title>32F7B93D-6BAA-4325-91F7-3B930B78799B</title>
    <desc>Created with sketchtool.</desc>
    <g id="icons" stroke="none" stroke-width="1" fill="none" fill-rule="evenodd">
        <g id="Icons-/-Elements" transform="translate(-263.000000, -173.000000)" fill="#6E8490" fill-rule="nonzero">
            <g id="like" transform="translate(263.000000, 173.000000)">
                <g id="like-copy">
                    <path d="M3.01480088,6.08496731 L0.620681416,6.08496731 C0.290150442,6.08496731 0.0221415929,6.35545939 0.0221415929,6.68914266 L0.0221415929,16.3556267 C0.0221415929,16.6892698 0.290110619,16.959802 0.620681416,16.959802 L3.01476106,16.959802 C3.34529204,16.959802 3.61330088,16.68931 3.61330088,16.3556267 L3.61330088,6.68910246 C3.61330088,6.35545939 3.34537168,6.08496731 3.01480088,6.08496731 Z" id="Path"></path>
                    <path d="M17.9659513,7.68645407 C17.8603805,6.74923861 16.9930752,6.08496731 16.0586283,6.08496731 L11.3923673,6.08496731 C11.7889248,5.36819747 12.0017788,3.34089372 11.9923407,2.51273533 C11.9766903,1.14190447 10.8520487,0.0433745963 9.4939646,0.0433745963 L9.00007965,0.0433745963 C8.66926991,0.0433745963 8.40153982,0.313585289 8.40153982,0.647549947 C8.40153982,2.04463007 7.86261504,4.56632855 6.84621239,5.5923413 C6.16209292,6.28290207 5.57725221,6.53313438 4.81038053,6.91999955 L4.81038053,15.9853633 C5.9844823,16.3803886 7.47521681,16.9598422 9.74739823,16.9598422 L13.6626372,16.9598422 C14.9527035,16.9598422 15.9574381,15.7537828 15.4575398,14.4795075 C16.2191549,14.2700761 16.7808186,13.5650039 16.7808186,12.7307354 C16.7808186,12.4952959 16.7358186,12.2699462 16.6545796,12.0628463 C17.9380354,11.709868 18.4104558,10.1101901 17.5196549,9.10576367 C17.8469204,8.73670619 18.0273982,8.2319002 17.9659513,7.68645407 Z" id="Path"></path>
                </g>
            </g>
        </g>
    </g>
</svg>