<?xml version="1.0" encoding="UTF-8"?>
<svg width="384px" height="48px" viewBox="0 0 384 48" version="1.1" xmlns="http://www.w3.org/2000/svg" xmlns:xlink="http://www.w3.org/1999/xlink">
    <!-- Generator: Sketch 57.1 (83088) - https://sketch.com -->
    <title>Line</title>
    <desc>Created with Sketch.</desc>
    <g id="dashboard" stroke="none" stroke-width="1" fill="none" fill-rule="evenodd" opacity="0.3" stroke-linecap="square">
        <g id="Group-5-Copy" transform="translate(0.000000, -91.000000)" stroke="#FFFFFF" stroke-width="2">
            <path d="M-6,142.30101 L20.2262744,121.668748 C33.7530278,111.027224 52.5703701,110.231317 66.9474014,119.692609 L75.5015271,125.321942 C85.7595656,132.072591 98.5499469,133.737294 110.194197,129.837286 L131.164882,122.813576 C137.376482,120.733125 144.003975,120.210074 150.465026,121.290381 L175.126154,125.413795 C184.410224,126.966118 193.944337,125.194562 202.051085,120.41081 L224.569948,107.122538 C233.430816,101.893782 243.965719,100.280408 253.985295,102.617706 L273.079207,107.071803 C282.232964,109.207129 291.846329,108.050647 300.232493,103.80528 L313.810839,96.9314494 C327.462483,90.0205134 343.86053,91.5030701 356.051292,100.750432 L385,122.709616 L385,122.709616" id="Line"></path>
        </g>
    </g>
</svg>