<?xml version="1.0" encoding="UTF-8"?>
<svg width="384px" height="32px" viewBox="0 0 384 32" version="1.1" xmlns="http://www.w3.org/2000/svg" xmlns:xlink="http://www.w3.org/1999/xlink">
    <!-- Generator: Sketch 57.1 (83088) - https://sketch.com -->
    <title>Line</title>
    <desc>Created with Sketch.</desc>
    <g id="dashboard" stroke="none" stroke-width="1" fill="none" fill-rule="evenodd" opacity="0.3" stroke-linecap="square">
        <g id="Group-5-Copy" transform="translate(0.000000, -100.000000)" stroke="#FFFFFF" stroke-width="2">
            <path d="M-6,106.427089 L26.1006019,102.471939 C36.8245368,101.150631 47.6268749,104.223987 56.0491716,110.992558 L69.8153025,122.055696 C82.0972517,131.926072 99.0295133,133.666579 113.062609,126.501187 L122.110371,121.88134 C133.716534,115.955156 147.481976,116.054229 159.001638,122.146854 L165.0625,125.352378 C179.709301,133.098913 197.648055,130.775063 209.837475,119.552068 L218.502489,111.574049 C230.510015,100.518527 248.030279,97.8675021 262.771059,104.875687 L275.323852,110.843641 C283.069039,114.525923 291.792635,115.621456 300.207818,113.968639 L325.205369,109.058898 C332.349463,107.655734 339.741045,108.229022 346.583347,110.716964 L385,124.685715 L385,124.685715" id="Line" transform="translate(189.500000, 115.938432) scale(-1, 1) translate(-189.500000, -115.938432) "></path>
        </g>
    </g>
</svg>