<?xml version="1.0" encoding="UTF-8"?>
<svg width="18px" height="22px" viewBox="0 0 18 22" version="1.1" xmlns="http://www.w3.org/2000/svg" xmlns:xlink="http://www.w3.org/1999/xlink">
    <!-- Generator: sketchtool 57.1 (101010) - https://sketch.com -->
    <title>E6689DFC-D5B4-4C64-AF3D-E529E9D1E1F7</title>
    <desc>Created with sketchtool.</desc>
    <g id="icons" stroke="none" stroke-width="1" fill="none" fill-rule="evenodd">
        <g id="Icons-/-Elements" transform="translate(-333.000000, -171.000000)" fill="#002C5B" fill-rule="nonzero">
            <g id="notification" transform="translate(333.000000, 171.000000)">
                <g id="Group-2" transform="translate(0.000000, -0.000000)">
                    <path d="M17.8795863,18.5560977 L16.3391144,15.9325977 C15.6276518,14.7216953 15.2517125,13.33475 15.2517125,11.9230977 L15.2517125,9.625 C15.2517125,6.72375 13.356834,4.26984766 10.7657172,3.47875 L10.7657172,1.83334766 C10.7657172,0.82225 9.96093214,-1.77635684e-15 8.97131065,-1.77635684e-15 C7.98168915,-1.77635684e-15 7.17690411,0.82225 7.17690411,1.83334766 L7.17690411,3.47875 C4.58582934,4.26984766 2.69095084,6.72375 2.69095084,9.625 L2.69095084,11.9230977 C2.69095084,13.33475 2.31501158,14.72075 1.60443214,15.9316953 L0.0639601816,18.5551953 C-0.0194790707,18.697293 -0.021287482,18.873293 0.058577004,19.0171953 C0.13844149,19.1610977 0.286478873,19.250043 0.4479742,19.250043 L17.4946892,19.250043 C17.6561845,19.250043 17.805105,19.1611406 17.8849695,19.0181406 C17.964834,18.8750977 17.9621424,18.69725 17.8795863,18.5560977 Z" id="Path"></path>
                    <path d="M6.14606766,20.1666523 C6.65208635,21.2465 7.72333869,22 8.97131065,22 C10.2192826,22 11.290577,21.2465 11.7965957,20.1666523 L6.14606766,20.1666523 L6.14606766,20.1666523 Z" id="Path"></path>
                </g>
            </g>
        </g>
    </g>
</svg>