<?xml version="1.0" encoding="UTF-8"?>
<svg width="20px" height="20px" viewBox="0 0 20 20" version="1.1" xmlns="http://www.w3.org/2000/svg" xmlns:xlink="http://www.w3.org/1999/xlink">
    <!-- Generator: sketchtool 57.1 (101010) - https://sketch.com -->
    <title>98583AF0-B5D8-4524-AC2E-23E8B48EC95B</title>
    <desc>Created with sketchtool.</desc>
    <g id="icons" stroke="none" stroke-width="1" fill="none" fill-rule="evenodd">
        <g id="Icons-/-Elements" transform="translate(-636.000000, -172.000000)" fill="#6E8490">
            <g id="play_blue" transform="translate(636.000000, 172.000000)">
                <path d="M10,0 C15.5228475,0 20,4.4771525 20,10 C20,15.5228475 15.5228475,20 10,20 C4.4771525,20 0,15.5228475 0,10 C0,4.4771525 4.4771525,0 10,0 Z M7.95102913,7.33333333 C7.79398896,7.33333333 7.66666667,7.4634353 7.66666667,7.62392078 L7.66666667,7.62392078 L7.66666667,12.7093989 C7.66666667,12.8698844 7.79398896,13 7.95102913,13 C7.95102913,13 12.3586073,10.6025547 12.5718792,10.3846175 C12.785151,10.166653 12.5718792,9.94870221 12.5718792,9.94870221 L12.5718792,9.94870221 Z" id="Combined-Shape-Copy-26"></path>
            </g>
        </g>
    </g>
</svg>