<?xml version="1.0" encoding="UTF-8"?>
<svg width="10px" height="10px" viewBox="0 0 10 10" version="1.1" xmlns="http://www.w3.org/2000/svg" xmlns:xlink="http://www.w3.org/1999/xlink">
    <!-- Generator: sketchtool 57.1 (101010) - https://sketch.com -->
    <title>419ED7F7-718A-4D74-BB9C-40D9CD5A8037</title>
    <desc>Created with sketchtool.</desc>
    <g id="icons" stroke="none" stroke-width="1" fill="none" fill-rule="evenodd">
        <g id="Icons-/-Elements" transform="translate(-751.000000, -287.000000)" fill="#002C5B">
            <g id="website" transform="translate(751.000000, 287.000000)">
                <path d="M8.88888889,8.88888889 L1.11111111,8.88888889 L1.11111111,1.11138889 L5,1.11138889 L5,0 L1.11111111,0 C0.494444444,0 0,0.5 0,1.11138889 L0,8.88888889 C0,9.5 0.494444444,10 1.11111111,10 L8.88888889,10 C9.5,10 10,9.5 10,8.88888889 L10,5 L8.88888889,5 L8.88888889,8.88888889 L8.88888889,8.88888889 Z M6.11111111,0 L6.11111111,1.11138889 L8.10555556,1.11138889 L2.64444444,6.57222222 L3.42777778,7.35555556 L8.88888889,1.89472222 L8.88888889,3.88888889 L10,3.88888889 L10,0 L6.11111111,0 L6.11111111,0 Z" id="Fill-117"></path>
            </g>
        </g>
    </g>
</svg>