<svg xmlns="http://www.w3.org/2000/svg" xmlns:se="http://svg-edit.googlecode.com" xmlns:xlink="http://www.w3.org/1999/xlink" xmlns:dc="http://purl.org/dc/elements/1.1/" xmlns:cc="http://creativecommons.org/ns#" xmlns:rdf="http://www.w3.org/1999/02/22-rdf-syntax-ns#" xmlns:inkscape="http://www.inkscape.org/namespaces/inkscape" width="777" height="480" style="">                                    <title>my vector image</title>                                    <!-- Created with Vector Paint - http://www.vectorpaint.yaks.com/ https://chrome.google.com/webstore/detail/hnbpdiengicdefcjecjbnjnoifekhgdo -->                                    <rect id="backgroundrect" width="100%" height="100%" x="0" y="0" fill="#FFFFFF" stroke="none"/>                                <g class="currentLayer" style=""><title>Layer 1</title><polyline fill="none" stroke="#222222" stroke-width="2" stroke-linejoin="round" stroke-dashoffset="" fill-rule="nonzero" marker-start="" marker-mid="" marker-end="" id="svg_1" points="316.08171117371097,-35.010749793739095 316.08171117371097,-35.010749793739095 " style="color: rgb(0, 0, 0);"/><path fill="none" fill-opacity="1" stroke="#222222" stroke-opacity="1" stroke-width="2" stroke-dasharray="none" stroke-linejoin="round" stroke-linecap="butt" stroke-dashoffset="" fill-rule="nonzero" opacity="1" marker-start="" marker-mid="" marker-end="" id="svg_2" d="M-0.584953248500824,283.80645751953125 C -0.04731893539428711,283.80645751953125,-0.006394548807293177,283.47454833984375,0.49031543731689453,283.268798828125 1.1927653551101685,282.97784423828125,2.103215456008911,281.1182861328125,3.7161221504211426,280.0429992675781 6.941921234130859,277.8924560546875,10.360535621643066,275.4906005859375,14.468809127807617,272.51611328125 17.86998748779297,270.0535888671875,20.817394256591797,267.0155334472656,24.683862686157227,263.9139709472656 28.877635955810547,260.54986572265625,33.09491729736328,257.6930847167969,38.124725341796875,254.77418518066406 42.28385543823242,252.3605499267578,45.20063781738281,250.60946655273438,47.80214309692383,248.86021423339844 50.03292465209961,247.3602294921875,53.147220611572266,245.0491180419922,56.404296875,242.94622802734375 60.665382385253906,240.1951141357422,66.08171081542969,237.56988525390625,70.92042541503906,235.41934204101562 75.7591323852539,233.26881408691406,80.56932830810547,231.57582092285156,86.51182556152344,229.50537109375 91.32830047607422,227.82723999023438,97.29031372070312,226.43565368652344,104.25375366210938,225.2042999267578 109.65281677246094,224.24957275390625,116.63077545166016,223.42123413085938,122.5333251953125,223.0537567138672 126.85948944091797,222.784423828125,130.06021118164062,222.51612854003906,133.8236541748047,222.51612854003906 137.04945373535156,222.51612854003906,140.85311889648438,222.79550170898438,145.1139678955078,223.59140014648438 149.4720458984375,224.4054718017578,153.09371948242188,225.4514923095703,157.4795684814453,226.81719970703125 161.71253967285156,228.13531494140625,166.0817108154297,229.50537109375,168.76988220214844,230.5806427001953 171.4580535888672,231.65591430664062,174.603759765625,232.9024658203125,177.90966796875,234.34408569335938 182.1202850341797,236.1802215576172,185.97418212890625,237.56988525390625,188.662353515625,238.64515686035156 191.35052490234375,239.72042846679688,193.53404235839844,240.70140075683594,196.72686767578125,241.87095642089844 199.44546508789062,242.86679077148438,202.08062744140625,243.55419921875,205.3290252685547,244.5591278076172 209.06822204589844,245.7158966064453,211.76846313476562,246.22335815429688,213.93118286132812,246.7096710205078 216.60580444335938,247.31109619140625,219.35292053222656,248.06735229492188,223.07095336914062,248.86021423339844 226.89892578125,249.676513671875,231.11038208007812,251.27903747558594,235.43655395507812,251.5483856201172 238.11953735351562,251.71542358398438,241.88816833496094,251.5483856201172,246.18923950195312,251.5483856201172 252.64083862304688,251.5483856201172,257.4544677734375,251.28009033203125,261.7806396484375,251.0107421875 266.07342529296875,250.7434844970703,270.947509765625,250.06307983398438,276.2967529296875,248.86021423339844 282.784912109375,247.40122985839844,290.3237609863281,246.33505249023438,297.8021545410156,244.02149963378906 304.2989501953125,242.01162719726562,310.7558898925781,239.8663787841797,317.156982421875,237.56988525390625 324.2054748535156,235.04112243652344,331.76568603515625,232.49456787109375,339.1999816894531,230.04299926757812 347.9249572753906,227.1658172607422,355.92291259765625,224.84164428710938,362.85589599609375,222.51612854003906 368.82208251953125,220.51490783691406,374.6490783691406,218.08935546875,382.21075439453125,216.06451416015625 388.63458251953125,214.3443603515625,394.4915771484375,212.0538787841797,398.8774108886719,210.68817138671875 403.1103820800781,209.37005615234375,406.3819580078125,209.34449768066406,411.2430114746094,209.07525634765625 416.0743103027344,208.8076629638672,422.5132141113281,208.80677795410156,427.90966796875,208.53762817382812 430.5945129394531,208.40371704101562,434.3837585449219,208.3809356689453,438.662353515625,209.07525634765625 441.3683776855469,209.51438903808594,443.5854187011719,209.924560546875,446.72686767578125,211.22579956054688 450.05889892578125,212.60597229003906,454.3304138183594,214.30348205566406,459.6300964355469,217.13978576660156 463.4517517089844,219.18507385253906,466.2395935058594,220.6200408935547,469.3075256347656,222.51612854003906 471.5942077636719,223.92938232421875,474.0741271972656,225.3166046142578,477.3720397949219,227.35482788085938 481.0592041015625,229.63363647460938,485.2763977050781,231.9642791748047,489.1999816894531,233.8064422607422 493.3580627441406,235.75868225097656,498.3648376464844,238.02627563476562,503.71612548828125,239.72042846679688 508.57867431640625,241.25985717773438,513.9428100585938,242.90054321289062,518.2322387695312,244.02149963378906 524.1630859375,245.5714111328125,528.4012451171875,246.4359130859375,533.8236694335938,247.24729919433594 539.1673583984375,248.04689025878906,545.1139526367188,247.78494262695312,553.7161254882812,247.78494262695312 562.3182983398438,247.78494262695312,571.5228271484375,247.00509643554688,579.5225830078125,245.09677124023438 589.2922973632812,242.7662353515625,598.9456176757812,240.5052490234375,609.0924682617188,237.56988525390625 619.3828125,234.593017578125,628.0507202148438,230.91299438476562,635.9741821289062,227.35482788085938 644.7476806640625,223.4149627685547,652.59716796875,219.19386291503906,659.630126953125,216.06451416015625 667.1118774414062,212.7354736328125,673.4752807617188,210.31918334960938,678.9849243164062,208.53762817382812 685.3125,206.4915771484375,691.9063720703125,205.41571044921875,698.3397827148438,204.23655700683594 703.7327880859375,203.24810791015625,709.0924682617188,203.16128540039062,716.6193237304688,203.16128540039062 728.4473266601562,203.16128540039062,732.2174072265625,202.8689422607422,738.662353515625,203.16128540039062 744.5946655273438,203.4303741455078,748.92724609375,204.64706420898438,753.178466796875,206.3870849609375 758.0789794921875,208.39285278320312,762.9314575195312,209.91464233398438,766.6193237304688,211.22579956054688 770.477294921875,212.59742736816406,773.185302734375,214.81246948242188,775.7591552734375,216.60214233398438 778.5855712890625,218.5674285888672,781.5457153320312,221.10780334472656,784.89892578125,223.0537567138672 786.9784545898438,224.2605743408203,788.662353515625,225.2042999267578,789.7376098632812,225.74192810058594 L 790.2752685546875,226.27957153320312" style="color: rgb(0, 0, 0);" class="selected"/></g></svg>