<svg xmlns="http://www.w3.org/2000/svg" xmlns:se="http://svg-edit.googlecode.com" xmlns:xlink="http://www.w3.org/1999/xlink" xmlns:dc="http://purl.org/dc/elements/1.1/" xmlns:cc="http://creativecommons.org/ns#" xmlns:rdf="http://www.w3.org/1999/02/22-rdf-syntax-ns#" xmlns:inkscape="http://www.inkscape.org/namespaces/inkscape" width="777" height="480" style="">                                    <title>my vector image</title>                                    <!-- Created with Vector Paint - http://www.vectorpaint.yaks.com/ https://chrome.google.com/webstore/detail/hnbpdiengicdefcjecjbnjnoifekhgdo -->                                    <rect id="backgroundrect" width="100%" height="100%" x="0" y="0" fill="#FFFFFF" stroke="none"/>                                <g class="currentLayer" style=""><title>Layer 1</title><polyline fill="none" stroke="#222222" stroke-width="2" stroke-linejoin="round" stroke-dashoffset="" fill-rule="nonzero" marker-start="" marker-mid="" marker-end="" id="svg_1" points="316.08171117371097,-35.010749793739095 316.08171117371097,-35.010749793739095 " style="color: rgb(0, 0, 0);"/><path fill="none" fill-opacity="1" stroke="#222222" stroke-opacity="1" stroke-width="2" stroke-dasharray="none" stroke-linejoin="round" stroke-linecap="butt" stroke-dashoffset="" fill-rule="nonzero" opacity="1" marker-start="" marker-mid="" marker-end="" id="svg_5" d="M 126.75927576297761 334.0573648519802 C 127.29691576297759 334.0573648519802 127.67618576297761 333.8712348519802 128.9098157629776 332.98208485198023 C 129.8850757629776 332.2791648519802 131.0603557629776 331.3691848519802 132.1356257629776 330.2939148519802 C 133.2108857629776 329.21864485198023 134.9375957629776 327.7594348519802 136.4366957629776 326.5304748519802 C 137.6126857629776 325.5663948519802 138.4361557629776 324.75079485198023 140.2001357629776 323.3046748519802 C 141.6992357629776 322.0757048519802 144.6608857629776 320.82412485198023 146.1141157629776 319.5412348519802 C 147.5673457629776 318.2583448519802 148.8022857629776 316.8530648519802 150.4151857629776 315.7777848519802 C 152.0280957629776 314.7025148519802 154.1149357629776 313.5249648519802 155.7915357629776 312.5519848519802 C 157.8711057629776 311.34517485198023 160.7158857629776 310.6107848519802 162.2431457629776 309.86381485198024 C 163.77040576297762 309.11684485198026 165.5689557629776 308.4162148519802 166.5442257629776 307.7132748519802 C 167.5194957629776 307.0103348519802 167.5840757629776 307.0980748519802 168.6947557629776 306.6380048519802 C 169.8054357629776 306.1779348519802 171.3176357629776 305.8350748519802 172.9958357629776 305.5627448519802 C 174.5879157629776 305.3043848519802 177.3130257629776 305.2878548519802 179.4474457629776 305.0251048519802 C 181.5818657629776 304.7623548519802 183.7485257629776 304.4874748519802 184.8237957629776 304.4874748519802 C 185.8990657629776 304.4874748519802 187.5119657629776 304.4874748519802 189.1248657629776 304.4874748519802 C 190.7377657629776 304.4874748519802 190.7377757629776 304.4874748519802 192.3506757629776 304.4874748519802 C 193.9635757629776 304.4874748519802 195.5973057629776 304.2291148519802 197.1893857629776 304.4874748519802 C 198.8675757629776 304.7597948519802 199.7827957629776 305.2865348519802 200.9528257629776 305.5627448519802 C 203.0458257629776 306.0568448519802 204.6808557629776 306.1779348519802 205.7915357629776 306.6380048519802 C 206.9022157629776 307.0980748519802 208.7990557629776 307.9890948519802 210.0926057629776 308.7885448519802 C 251.4904557629776 325.4552148519802 252.0280957629776 325.4552148519802 252.5657257629776 325.4552148519802 C 253.64099576297758 325.4552148519802 255.25390576297758 325.4552148519802 256.3291657629776 325.4552148519802 C 257.9420757629776 325.4552148519802 259.0395457629776 324.9997048519802 261.1678757629776 324.3799448519802 C 263.2962057629776 323.7601848519802 265.5075557629776 322.9330448519802 268.1571157629776 322.22940485198023 C 354.1721357629776 289.9276348519802 357.3922557629776 289.3824048519802 359.5549757629776 288.8960748519802 C 362.2295957629776 288.2946548519802 364.3603257629776 288.09053485198024 367.6194957629776 287.8208048519802 C 370.8343057629776 287.5547348519802 373.5334657629776 287.8208048519802 376.7592757629776 287.8208048519802 C 378.3721757629776 287.8208048519802 379.9850757629776 287.8208048519802 380.5227257629776 287.8208048519802 C 381.5979757629776 287.8208048519802 383.7485257629776 288.35843485198023 384.8237757629776 288.8960748519802 C 386.9743157629776 289.9713648519802 389.0726157629776 291.1671448519802 390.2001457629776 291.5842448519802 C 392.2791557629776 292.35332485198023 393.8844157629776 292.7525848519802 394.5012057629776 293.1971448519802 C 395.4764857629776 293.9000848519802 396.0733257629776 293.0473948519802 398.1005457629776 293.9441748519802 C 400.1277657629776 294.8409548519802 401.8697357629776 296.6090848519802 403.1033457629776 297.4982148519802 C 404.3369557629776 298.38734485198023 405.2893857629776 299.0453548519802 406.3291757629776 299.6487648519802 C 408.0057857629776 300.6217248519802 410.0571857629776 301.8768848519802 411.1678657629776 302.33693485198023 C 412.2785457629776 302.7969848519802 414.5603457629776 303.59366485198024 416.0065757629776 304.4874748519802 C 469.7592057629776 324.6848448519802 472.9958357629776 324.3799448519802 475.6840057629776 324.3799448519802 C 478.9098057629776 324.3799448519802 481.0825657629776 323.9244448519802 483.2108957629776 323.3046748519802 C 486.4755757629776 322.3539948519802 488.5872357629776 321.6917748519802 490.7377757629776 321.1541348519802 C 492.8882957629776 320.6165048519802 495.5764957629776 319.5412348519802 497.72700576297757 318.46596485198023 C 524.1419157629776 305.18025485198024 558.4658057629777 294.1976348519802 561.1678657629776 293.73478485198024 C 564.9149657629775 293.09294485198023 568.6613957629776 292.92924485198023 571.9205757629776 292.6595148519802 C 574.5995957629776 292.4378048519802 578.3779457629776 292.4514048519802 582.1356057629775 292.6595148519802 C 586.9966557629776 292.9287448519802 591.2398257629776 292.9004948519802 597.7270057629776 293.73478485198024 C 604.2141857629776 294.5690748519802 609.5994157629776 295.7210548519802 613.8560357629776 296.96058485198023" style="color: rgb(0, 0, 0);" class=""/><polyline fill="none" stroke="#222222" stroke-width="2" stroke-linejoin="round" stroke-dashoffset="" fill-rule="nonzero" marker-start="" marker-mid="" marker-end="" id="svg_4" points="256.94192668231386,206.3870978120545 257.47956108678113,205.84946340758722 " style="color: rgb(0, 0, 0);"/></g><defs><filter id="f108" inkscape:label="Specular light" inkscape:menu="ABCs" inkscape:menu-tooltip="Basic specular bevel to use for building textures" color-interpolation-filters="sRGB">
            <feGaussianBlur result="result0" in="SourceAlpha" stdDeviation="6"/>
            <feSpecularLighting specularExponent="25" specularConstant="1" surfaceScale="10" lighting-color="#fff" result="result1" in="result0">
                <feDistantLight azimuth="235" elevation="45"/>
            </feSpecularLighting>
            <feComposite k3="1" k2="1" operator="arithmetic" result="result4" in="SourceGraphic" in2="result91"/>
            <feComposite operator="in" result="result2" in="result4" in2="SourceAlpha"/>
        </filter></defs></svg>