<?xml version="1.0" encoding="UTF-8"?>
<svg width="355px" height="242px" viewBox="0 0 355 242" version="1.1" xmlns="http://www.w3.org/2000/svg" xmlns:xlink="http://www.w3.org/1999/xlink">
    <!-- Generator: sketchtool 57.1 (101010) - https://sketch.com -->
    <title>C98BD90A-5387-4BA8-B3D5-BD19AB203F4C</title>
    <desc>Created with sketchtool.</desc>
    <defs>
        <rect id="path-1" x="0" y="0" width="345" height="232" rx="5"></rect>
        <filter x="-2.3%" y="-3.0%" width="104.6%" height="106.9%" filterUnits="objectBoundingBox" id="filter-3">
            <feOffset dx="0" dy="1" in="SourceAlpha" result="shadowOffsetOuter1"></feOffset>
            <feGaussianBlur stdDeviation="2.5" in="shadowOffsetOuter1" result="shadowBlurOuter1"></feGaussianBlur>
            <feColorMatrix values="0 0 0 0 0   0 0 0 0 0   0 0 0 0 0  0 0 0 0.1 0" type="matrix" in="shadowBlurOuter1"></feColorMatrix>
        </filter>
        <linearGradient x1="50%" y1="0%" x2="50%" y2="100%" id="linearGradient-4">
            <stop stop-color="#000000" stop-opacity="0" offset="0%"></stop>
            <stop stop-color="#000000" offset="100%"></stop>
        </linearGradient>
    </defs>
    <g id="dashboard" stroke="none" stroke-width="1" fill="none" fill-rule="evenodd">
        <g id="Dashboard-Mobile" transform="translate(-10.000000, -1855.000000)">
            <g id="Group-5" transform="translate(15.000000, 1859.000000)">
                <mask id="mask-2" fill="white">
                    <use xlink:href="#path-1"></use>
                </mask>
                <g id="Rectangle-Copy-15">
                    <use fill="black" fill-opacity="1" filter="url(#filter-3)" xlink:href="#path-1"></use>
                    <use fill="#0272B4" fill-rule="evenodd" xlink:href="#path-1"></use>
                </g>
                <path d="M-6,142.30101 L20.2262744,121.668748 C33.7530278,111.027224 52.5703701,110.231317 66.9474014,119.692609 L75.5015271,125.321942 C85.7595656,132.072591 98.5499469,133.737294 110.194197,129.837286 L131.164882,122.813576 C137.376482,120.733125 144.003975,120.210074 150.465026,121.290381 L175.126154,125.413795 C184.410224,126.966118 193.944337,125.194562 202.051085,120.41081 L224.569948,107.122538 C233.430816,101.893782 243.965719,100.280408 253.985295,102.617706 L273.079207,107.071803 C282.232964,109.207129 291.846329,108.050647 300.232493,103.80528 L313.810839,96.9314494 C327.462483,90.0205134 343.86053,91.5030701 356.051292,100.750432 L385,122.709616 L385,122.709616" id="Line" stroke="#FFFFFF" stroke-width="2" opacity="0.3" stroke-linecap="square" mask="url(#mask-2)"></path>
                <path d="M-6,106.427089 L26.1006019,102.471939 C36.8245368,101.150631 47.6268749,104.223987 56.0491716,110.992558 L69.8153025,122.055696 C82.0972517,131.926072 99.0295133,133.666579 113.062609,126.501187 L122.110371,121.88134 C133.716534,115.955156 147.481976,116.054229 159.001638,122.146854 L165.0625,125.352378 C179.709301,133.098913 197.648055,130.775063 209.837475,119.552068 L218.502489,111.574049 C230.510015,100.518527 248.030279,97.8675021 262.771059,104.875687 L275.323852,110.843641 C283.069039,114.525923 291.792635,115.621456 300.207818,113.968639 L325.205369,109.058898 C332.349463,107.655734 339.741045,108.229022 346.583347,110.716964 L385,124.685715 L385,124.685715" id="Line" stroke="#FFFFFF" stroke-width="2" opacity="0.3" stroke-linecap="square" mask="url(#mask-2)" transform="translate(189.500000, 115.938432) scale(-1, 1) translate(-189.500000, -115.938432) "></path>
                <rect id="Rectangle" fill="url(#linearGradient-4)" opacity="0.4" mask="url(#mask-2)" x="-2" y="0" width="384" height="232"></rect>
            </g>
        </g>
    </g>
</svg>