<?xml version="1.0" encoding="UTF-8"?>
<svg width="14px" height="14px" viewBox="0 0 14 14" version="1.1" xmlns="http://www.w3.org/2000/svg" xmlns:xlink="http://www.w3.org/1999/xlink">
    <!-- Generator: sketchtool 57.1 (101010) - https://sketch.com -->
    <title>E9974E6B-AA26-4531-8E25-74AD6E9067CF</title>
    <desc>Created with sketchtool.</desc>
    <g id="general-material" stroke="none" stroke-width="1" fill="none" fill-rule="evenodd">
        <g id="VIDEO-playlist" transform="translate(-643.000000, -871.000000)" fill-rule="nonzero" stroke="#6E8490">
            <g id="favourites_empty" transform="translate(644.000000, 872.000000)">
                <g id="star">
                    <path d="M11.7308235,5.4325 C11.9621176,5.193 12.0437647,4.8415 11.944,4.51475 C11.844,4.188 11.5835294,3.95475 11.2635294,3.90525 L8.41835294,3.466 C8.29717647,3.44725 8.19247059,3.3665 8.13835294,3.24975 L6.86635294,0.51075 C6.72352941,0.203 6.43364706,0.01175 6.11058824,0.01175 C5.78776471,0.01175 5.49788235,0.203 5.35505882,0.51075 L4.08282353,3.25 C4.02870588,3.36675 3.92376471,3.4475 3.80258824,3.46625 L0.957411765,3.9055 C0.637647059,3.95475 0.376941176,4.18825 0.276941176,4.515 C0.177176471,4.84175 0.258823529,5.19325 0.490117647,5.43275 L2.54870588,7.56475 C2.63647059,7.65575 2.67670588,7.78675 2.656,7.91475 L2.17035294,10.92525 C2.12729412,11.19025 2.19270588,11.448 2.35411765,11.65125 C2.60494118,11.968 3.04282353,12.0645 3.39294118,11.869 L5.93741176,10.4475 C6.04376471,10.38825 6.17764706,10.38875 6.28376471,10.4475 L8.82847059,11.869 C8.95223529,11.93825 9.08423529,11.97325 9.22047059,11.97325 C9.46917647,11.97325 9.70494118,11.85575 9.86705882,11.65125 C10.0287059,11.448 10.0938824,11.18975 10.0508235,10.92525 L9.56494118,7.91475 C9.54423529,7.7865 9.58447059,7.65575 9.67223529,7.56475 L11.7308235,5.4325 Z" id="Path"></path>
                </g>
            </g>
        </g>
    </g>
</svg>