<?xml version="1.0" encoding="UTF-8"?>
<svg width="18px" height="12px" viewBox="0 0 18 12" version="1.1" xmlns="http://www.w3.org/2000/svg" xmlns:xlink="http://www.w3.org/1999/xlink">
    <!-- Generator: sketchtool 52.2 (67145) - http://www.bohemiancoding.com/sketch -->
    <title>FA35867C-8271-4D66-A137-CC807F360D58</title>
    <desc>Created with sketchtool.</desc>
    <g id="plan-practice" stroke="none" stroke-width="1" fill="none" fill-rule="evenodd">
        <g id="Plan-practice-(list)" transform="translate(-1247.000000, -380.000000)" fill="#FFFFFF">
            <path d="M1255.99979,380 C1251.90921,380 1248.41526,382.487734 1247,386 C1248.41526,389.511852 1251.90921,392 1255.99979,392 C1260.09079,392 1263.58432,389.511852 1265,386 C1263.58432,382.487734 1260.09079,380 1255.99979,380 L1255.99979,380 Z M1255.99979,389.999724 C1253.74181,389.999724 1251.90921,388.207828 1251.90921,386 C1251.90921,383.791759 1253.74181,381.999862 1255.99979,381.999862 C1258.25819,381.999862 1260.09079,383.791759 1260.09079,386 C1260.09079,388.207828 1258.25819,389.999724 1255.99979,389.999724 L1255.99979,389.999724 Z M1255.99979,383.599917 C1254.64162,383.599917 1253.54519,384.671996 1253.54519,386 C1253.54519,387.328004 1254.64162,388.400083 1255.99979,388.400083 C1257.35796,388.400083 1258.45439,387.328004 1258.45439,386 C1258.45439,384.671996 1257.35796,383.599917 1255.99979,383.599917 L1255.99979,383.599917 Z" id="Fill-29-Copy-5"></path>
        </g>
    </g>
</svg>