<?xml version="1.0" encoding="UTF-8"?>
<svg width="35px" height="35px" viewBox="0 0 35 35" version="1.1" xmlns="http://www.w3.org/2000/svg" xmlns:xlink="http://www.w3.org/1999/xlink">
    <!-- Generator: sketchtool 57.1 (101010) - https://sketch.com -->
    <title>D3A7A2C6-BA65-4E5C-8856-5B07C9C8DF54</title>
    <desc>Created with sketchtool.</desc>
    <g id="dashboard" stroke="none" stroke-width="1" fill="none" fill-rule="evenodd">
        <g id="Dashboard" transform="translate(-1035.000000, -1336.000000)">
            <g id="plans" transform="translate(1035.000000, 1336.000000)">
                <g id="Group-10">
                    <g id="Group-8-Copy-2" fill="#B63E97">
                        <circle id="Oval-Copy-2" cx="17.5" cy="17.5" r="17.5"></circle>
                    </g>
                    <path d="M9.5,22 C10.3284271,22 11,22.6715729 11,23.5 C11,24.3284271 10.3284271,25 9.5,25 C8.67157288,25 8,24.3284271 8,23.5 C8,22.6715729 8.67157288,22 9.5,22 Z M25.5,22 C26.3284271,22 27,22.6715729 27,23.5 C27,24.3284271 26.3284271,25 25.5,25 L14.5,25 C13.6715729,25 13,24.3284271 13,23.5 C13,22.6715729 13.6715729,22 14.5,22 L25.5,22 Z M9.5,16 C10.3284271,16 11,16.6715729 11,17.5 C11,18.3284271 10.3284271,19 9.5,19 C8.67157288,19 8,18.3284271 8,17.5 C8,16.6715729 8.67157288,16 9.5,16 Z M25.5,16 C26.3284271,16 27,16.6715729 27,17.5 C27,18.3284271 26.3284271,19 25.5,19 L14.5,19 C13.6715729,19 13,18.3284271 13,17.5 C13,16.6715729 13.6715729,16 14.5,16 L25.5,16 Z M9.5,10 C10.3284271,10 11,10.6715729 11,11.5 C11,12.3284271 10.3284271,13 9.5,13 C8.67157288,13 8,12.3284271 8,11.5 C8,10.6715729 8.67157288,10 9.5,10 Z M25.5,10 C26.3284271,10 27,10.6715729 27,11.5 C27,12.3284271 26.3284271,13 25.5,13 L14.5,13 C13.6715729,13 13,12.3284271 13,11.5 C13,10.6715729 13.6715729,10 14.5,10 L25.5,10 Z" id="Combined-Shape" fill="#FFFFFF"></path>
                </g>
            </g>
        </g>
    </g>
</svg>