<?xml version="1.0" encoding="UTF-8"?>
<svg width="80px" height="116px" viewBox="0 0 80 116" version="1.1" xmlns="http://www.w3.org/2000/svg" xmlns:xlink="http://www.w3.org/1999/xlink">
    <!-- Generator: sketchtool 52.2 (67145) - http://www.bohemiancoding.com/sketch -->
    <title>C2CFDABF-FFF1-4097-9BC9-CF8B11A42D8A</title>
    <desc>Created with sketchtool.</desc>
    <defs>
        <polygon id="path-1" points="0.480697674 0.591086222 6.78162733 0.591086222 6.78162733 7.59803315 0.480697674 7.59803315"></polygon>
        <polygon id="path-3" points="0.143202541 0.470507608 7.42946998 0.470507608 7.42946998 7.71814693 0.143202541 7.71814693"></polygon>
    </defs>
    <g id="icons" stroke="none" stroke-width="1" fill="none" fill-rule="evenodd">
        <g id="Icons-/-Elements" transform="translate(-1046.000000, -234.000000)">
            <g id="Group-76" transform="translate(1046.000000, 234.000000)">
                <path d="M37.1473919,3.02868936 C37.1473919,1.5876959 38.059793,0.420026353 39.1866593,0.420026353 C40.3061302,0.420026353 41.2148337,1.5876959 41.2148337,3.02868936 C41.2148337,4.47619054 40.3061302,5.63549302 39.1866593,5.63549302 C38.059793,5.63549302 37.1473919,4.47619054 37.1473919,3.02868936" id="Fill-2" fill="#FFFFFF"></path>
                <path d="M53.962936,24.1647167 C54.7052442,24.359948 55.2395581,25.0265237 55.2395581,25.825113 C55.2395581,26.7650126 54.4695174,27.5338523 53.521064,27.5338523 C53.4027384,27.5338523 53.2779419,27.5236259 53.1670116,27.4966654 C53.128186,27.492017 53.0875116,27.4817906 53.0570058,27.4697049 C48.6697151,26.4042994 44.0152674,25.8362691 39.1870291,25.8362691 C34.366186,25.8362691 29.7061919,26.4042994 25.3078081,27.4697049 C25.2708314,27.4817906 25.2357035,27.492017 25.2024244,27.4966654 C25.0896453,27.5236259 24.9713198,27.5338523 24.8502209,27.5338523 C23.8925233,27.5338523 23.1187849,26.7650126 23.1187849,25.825113 C23.1187849,25.0265237 23.6632674,24.359948 24.4037267,24.1647167 C29.0951512,23.0295857 34.0528081,22.4150717 39.1870291,22.4150717 C44.3138547,22.4150717 49.2705872,23.0295857 53.9435233,24.1628573 L53.962936,24.1647167 Z" id="Fill-4" fill="#FFFFFF"></path>
                <path d="M52.6286302,21.543596 L51.7069849,21.353013 L52.6924151,18.2599903 L53.6186826,18.457081 L52.6286302,21.543596 Z M49.8951244,20.0579782 C49.4893047,20.0579782 49.1518919,19.734452 49.1518919,19.3272551 C49.1518919,18.9237769 49.4893047,18.596532 49.8951244,18.596532 C50.3101884,18.596532 50.638357,18.9237769 50.638357,19.3272551 C50.638357,19.734452 50.3101884,20.0579782 49.8951244,20.0579782 Z M46.3684674,20.360122 L45.4255605,18.6792729 L46.8491651,17.3628556 L47.7920721,19.0427751 L46.3684674,20.360122 Z M43.0729151,19.4778622 C42.5681826,19.4778622 42.1799267,19.0781027 42.1799267,18.596532 C42.1799267,18.1112426 42.5681826,17.7152018 43.0729151,17.7152018 C43.5591593,17.7152018 43.9677523,18.1112426 43.9677523,18.596532 C43.9677523,19.0781027 43.5591593,19.4778622 43.0729151,19.4778622 Z M38.2040023,20.0524002 L40.1757872,20.0524002 L40.1757872,16.9203312 L38.2040023,16.9203312 L38.2040023,20.0524002 Z M35.3161186,19.4778622 C34.8215547,19.4778622 34.4286767,19.0781027 34.4286767,18.596532 C34.4286767,18.1112426 34.8215547,17.7152018 35.3161186,17.7152018 C35.8069849,17.7152018 36.2007872,18.1112426 36.2007872,18.596532 C36.2007872,19.0781027 35.8069849,19.4778622 35.3161186,19.4778622 Z M32.0205663,20.360122 L30.5951128,19.0427751 L31.5306244,17.3628556 L32.9616244,18.6792729 L32.0205663,20.360122 Z M28.4837407,20.0579782 C28.0760721,20.0579782 27.7432814,19.734452 27.7432814,19.3272551 C27.7432814,18.9237769 28.0760721,18.596532 28.4837407,18.596532 C28.9006535,18.596532 29.2269733,18.9237769 29.2269733,19.3272551 C29.2269733,19.734452 28.9006535,20.0579782 28.4837407,20.0579782 Z M25.7576302,21.543596 L24.7666535,18.457081 L25.6956942,18.2599903 L26.6811244,21.353013 L25.7576302,21.543596 Z M58.5097814,9.66051315 C57.9967291,10.0444682 57.0769326,10.2108797 56.0397349,10.0797958 C56.2126012,10.9313764 56.192264,11.8907992 55.9398977,12.864167 C54.8657233,12.2859103 54.176107,11.0485152 54.0245023,9.58520962 C53.966264,10.0686397 53.8821419,10.5539291 53.7601186,11.0485152 C53.3894267,12.6001398 52.7081302,13.9611814 51.8613628,15.0284462 C53.2720256,14.0950543 55.4462581,14.5143369 54.2223279,15.9460337 C53.5613686,16.7083657 52.5297174,17.0383997 51.3122581,16.8199265 C50.1706012,16.6219061 49.1352523,15.9060577 48.759014,14.8062543 C49.1019733,14.7885905 49.4125779,14.5422271 49.485607,14.1973184 C49.9570605,14.8834172 50.6106244,15.1874203 50.6244907,15.1837016 C50.3665779,13.333652 51.1005663,12.7265754 51.5775663,11.8517529 C52.0554907,10.9732117 52.0222116,10.2192467 51.574793,9.91989197 C51.1292233,9.62518557 50.5847407,9.96730531 50.1206826,10.4144781 C50.143793,10.3326669 50.1604326,10.2480666 50.1733744,10.164396 C50.7659267,7.35306426 50.5348221,4.92940622 49.6547756,4.75183864 C48.7839733,4.58170844 47.5942465,6.71437877 47.0053919,9.52571054 C46.9850547,9.60938112 46.9674907,9.69026269 46.9508512,9.77858165 C46.7095779,9.18637982 46.3509035,8.65646609 45.8267581,8.75594112 C45.2887465,8.85820518 44.947636,9.53686661 45.0345314,10.5325466 C45.1205023,11.530086 45.5522058,12.3630732 44.5593802,13.9611814 C44.5667756,13.9704781 45.294293,13.9416582 46.0088686,13.4944854 C45.9358395,13.8310271 46.0976128,14.1629205 46.3906535,14.3135275 C45.6964151,15.0396023 44.6952698,15.5462742 43.3151128,15.3956671 C41.66595,15.2171699 40.6592581,13.8403239 40.4401709,12.3537764 C41.5892233,12.5425001 42.5829733,12.9822355 43.2993977,13.5874528 C42.8963512,12.1260065 42.8649209,10.3652054 43.2993977,8.56349877 C43.3419209,8.3822125 43.3918395,8.20464492 43.4408337,8.0317257 C42.8140779,8.92886034 41.688136,9.60752178 40.3523512,9.86039289 C40.4004209,9.54802269 40.4743744,9.23472282 40.5769849,8.91212622 C40.8792698,7.91179786 41.4034151,6.88171995 42.0255488,6.17888701 C41.1880256,6.46615603 40.2164616,6.63442688 39.1866593,6.63442688 C38.1485372,6.63442688 37.1760488,6.46615603 36.3403744,6.17888701 C36.957886,6.88171995 37.4820314,7.91179786 37.7907872,8.91212622 C37.8860023,9.23472282 37.9627291,9.54802269 38.0154209,9.86039289 C36.6759384,9.60752178 35.5462988,8.92514165 34.9223163,8.02707733 C34.9722349,8.20464492 35.0203047,8.3822125 35.0665256,8.56349877 C35.4982291,10.3652054 35.4658744,12.1260065 35.0619035,13.5874528 C35.7792523,12.9822355 36.7840953,12.5425001 37.9257523,12.3537764 C37.7038919,13.8403239 36.7036709,15.2171699 35.0480372,15.3956671 C33.6835953,15.5462742 32.6676593,15.0396023 31.9798919,14.3135275 C32.262764,14.1629205 32.4273105,13.8310271 32.3552058,13.4916964 C33.0651593,13.9416582 33.7991477,13.9704781 33.8056186,13.9611814 C32.8266593,12.3630732 33.2472698,11.530086 33.3313919,10.5325466 C33.415514,9.53686661 33.0753279,8.85820518 32.5419384,8.75594112 C32.0205663,8.65646609 31.6544965,9.18637982 31.4095256,9.77858165 L31.3651535,9.52571054 C30.7716767,6.71437877 29.58195,4.58170844 28.7065256,4.75183864 C27.8311012,4.92940622 27.5972233,7.35306426 28.1897756,10.164396 L28.2452407,10.4144781 C27.7802581,9.96730531 27.2422465,9.62518557 26.7939035,9.91989197 C26.3427872,10.2192467 26.3122814,10.9732117 26.7892814,11.8517529 C27.2755256,12.7265754 27.9947233,13.333652 27.7368105,15.1837016 C27.7460547,15.1874203 28.407014,14.8834172 28.8867872,14.1973184 C28.9598163,14.5422271 29.2602523,14.7885905 29.610607,14.8062543 C29.2269733,15.9060577 28.201793,16.6219061 27.049043,16.8199265 C25.8389791,17.0383997 24.8045547,16.7083657 24.1491419,15.9460337 C22.9205895,14.519915 25.0920488,14.1034214 26.5091826,15.0275165 C25.6587174,13.9611814 24.9829674,12.6001398 24.602107,11.0485152 C24.4782349,10.5539291 24.3950372,10.070499 24.3414209,9.58520962 C24.1962872,11.0494449 23.5038977,12.2859103 22.42695,12.864167 C22.1727349,11.8861508 22.1505488,10.912783 22.3289616,10.0528352 C21.3037814,10.2192467 20.3849093,10.0816551 19.8727814,9.7144342 L23.8311419,20.448441 C24.3090663,21.6588755 24.4680663,22.3747239 24.0400605,23.7022972 C28.8211535,22.4741989 33.9063802,21.8113419 39.183886,21.8113419 C44.466014,21.8113419 49.5493919,22.4741989 54.328636,23.7022972 C53.8960081,22.3747239 54.0577814,21.6588755 54.5329326,20.448441 L58.5097814,9.66051315 Z" id="Fill-6" fill="#FFFFFF"></path>
                <path d="M52.7352157,7.13728711 C52.7352157,6.42329809 53.316675,5.84690071 54.0183087,5.84690071 C54.7236401,5.84690071 55.2875355,6.42329809 55.2875355,7.13728711 C55.2875355,7.84848711 54.7236401,8.40257234 54.0183087,8.40257234 C53.316675,8.40257234 52.7352157,7.84848711 52.7352157,7.13728711 M52.5087331,7.13728711 C52.5087331,7.97585234 53.1789366,8.62755325 54.0183087,8.62755325 C54.844739,8.62755325 55.5195645,7.97585234 55.5195645,7.13728711 C55.5195645,6.29965156 54.844739,5.61634175 54.0183087,5.61634175 C53.1789366,5.61634175 52.5087331,6.29965156 52.5087331,7.13728711" id="Fill-8" fill="#FFFFFF"></path>
                <path d="M54.2112349,6.31248105 L53.4652291,6.31248105 L53.4652291,7.88176941 L53.7841535,7.88176941 L53.7841535,7.27004444 L54.1058512,7.27004444 C54.1918221,7.27004444 54.249136,7.28305987 54.2814907,7.31838745 C54.3138453,7.35371503 54.3295605,7.41600314 54.3295605,7.51826719 L54.335107,7.66236654 C54.335107,7.7088502 54.3388047,7.75533386 54.3471244,7.80181752 C54.3498977,7.81948131 54.357293,7.84458248 54.3702349,7.88176941 L54.7233628,7.88176941 L54.7233628,7.84365281 C54.6919326,7.82598902 54.6697465,7.7953098 54.6660488,7.75533386 C54.6595779,7.72465464 54.6595779,7.68281935 54.6595779,7.60751582 L54.6595779,7.50525176 C54.6595779,7.39462065 54.6364674,7.31373908 54.6059616,7.25888837 C54.5773047,7.20310797 54.5301593,7.16127268 54.4562058,7.13431216 C54.5412523,7.10177359 54.6059616,7.05250092 54.6429384,6.98184575 C54.6789907,6.90840157 54.7048744,6.83402771 54.7048744,6.76058353 C54.7048744,6.70201412 54.6854616,6.64530405 54.6697465,6.59231268 C54.6503337,6.54489935 54.6299965,6.50027503 54.5939442,6.45843974 C54.5504965,6.41009673 54.5033512,6.3766285 54.4441884,6.35059765 C54.38595,6.32363712 54.3092233,6.31712941 54.2112349,6.31248105 Z M54.1492988,6.58301595 C54.2112349,6.58301595 54.255607,6.59231268 54.2879616,6.61183582 C54.3452756,6.6471634 54.3813279,6.71131085 54.3813279,6.80427817 C54.3813279,6.89538614 54.3415779,6.95116654 54.284264,6.98184575 C54.249136,6.9976502 54.2084616,7.0078766 54.1317349,7.0078766 L53.7841535,7.0078766 L53.7841535,6.58301595 L54.1492988,6.58301595 Z" id="Fill-10" fill="#FFFFFF"></path>
                <path d="M30.285525,85.1173457 C30.2374552,85.5291909 30.2152692,85.9289504 30.2152692,86.3500923 C30.2152692,86.4346926 30.2152692,86.5267302 30.2189669,86.6178382 L24.8249843,86.6178382 L24.8249843,91.5888008 L31.8219087,91.5860118 C32.2184843,92.1596202 32.6067401,92.7016197 33.1197924,93.1599485 L22.2310657,93.1599485 L22.2310657,81.9862063 C22.2310657,80.8166774 21.681961,79.6192584 20.4118099,79.4035742 L20.4118099,79.1981164 L33.3647634,79.1981164 C32.4384959,80.0227365 31.7581238,80.8603721 31.2025483,81.9759799 C31.0722052,80.9319569 30.2698099,80.6660704 29.2871529,80.6660704 L24.8249843,80.6660704 L24.8249843,85.1173457 L30.285525,85.1173457 Z" id="Fill-12" fill="#FFFFFF"></path>
                <path d="M52.5519035,91.6767479 L49.5096419,91.6767479 L49.5096419,86.6109586 L52.5787116,86.6109586 C54.2223279,86.6202554 55.3695314,87.5359835 55.3695314,89.2028875 C55.3695314,91.8691903 52.5565256,91.6767479 52.5519035,91.6767479 Z M49.5096419,80.54763 L52.301386,80.54763 C53.6963337,80.54763 54.606886,81.2857905 54.606886,82.7119092 C54.606886,84.0878256 53.7203686,85.1076771 52.3226477,85.1076771 L49.5096419,85.1076771 L49.5096419,80.54763 Z M46.91295,93.1595767 L53.8063395,93.1577173 C56.2024326,93.1577173 57.9680721,91.3178941 57.9680721,89.2028875 C57.9680721,86.3850481 55.6126535,85.5427641 55.2197756,85.4181879 C56.3068919,84.8882742 57.0547465,84.001366 57.0547465,82.4748426 C57.0547465,80.6536128 55.5627349,79.1977445 53.2424442,79.1977445 L45.0899965,79.1977445 L45.0899965,79.4022726 C46.3573744,79.6188865 46.91295,80.8246726 46.91295,81.9849048 L46.91295,93.1595767 Z" id="Fill-14" fill="#FFFFFF"></path>
                <path d="M44.9263744,90.6508535 C43.4935256,91.9589037 42.1928686,92.0472227 40.3643686,92.0295589 C37.3248802,92.0016687 34.7512988,89.7992729 34.7753337,86.2730224 C34.7512988,82.7281785 37.3248802,80.3881911 40.3643686,80.3593712 C42.4914558,80.3426371 44.6056012,81.0603448 44.9642756,83.60579 L45.0899965,83.5871965 L45.0899965,80.4876661 C43.6238686,79.3953001 41.8406651,78.8365665 40.025107,78.8365665 C35.0369442,78.8365665 31.9937581,82.2447484 31.9937581,86.3232248 C31.9937581,90.3542878 35.0397174,93.6518386 40.025107,93.6518386 C41.8406651,93.6518386 43.6238686,93.1163469 45.0899965,92.0202622 L44.9263744,90.6508535 Z" id="Fill-16" fill="#FFFFFF"></path>
                <path d="M29.0713012,38.1842815 C28.9067547,38.4771286 28.7856558,38.7058282 28.7856558,38.7058282 C28.4399233,37.5186355 28.5758128,36.5573534 28.7625453,35.9493471 C28.5212721,36.0999542 28.3678186,36.2384755 28.3678186,36.2384755 C28.426057,35.9028635 28.5064814,35.5951416 28.5758128,35.3115913 C26.2675395,34.3205597 24.6914058,33.4801351 24.8892314,31.989869 C24.9705802,31.4004562 25.4179988,30.9411976 25.160086,30.4075652 C25.0916791,30.2792703 25.0121791,30.1853733 24.9243593,30.1193665 C24.9206616,30.0542894 24.8994,29.9929309 24.8790628,29.9287835 C24.7191384,29.4648765 24.2264233,29.2324582 23.7484988,29.3988698 C23.9574174,29.4360567 24.1469233,29.5810857 24.2264233,29.8014182 C24.2532314,29.8795108 24.2615512,29.9548143 24.2597023,30.0263992 C24.1099465,30.0821796 23.9777547,30.1816546 23.9047256,30.3099495 C23.8492605,30.2151228 23.7614407,30.1388896 23.6597547,30.092406 C23.5442023,30.0431333 23.4277256,30.0329069 23.3094,30.0542894 C23.2465395,29.9548143 23.1522488,29.861847 23.0440919,29.7958402 C22.63365,29.5383207 22.1030337,29.668475 21.8414233,30.1017027 C22.0327779,29.9957199 22.2555628,29.9929309 22.4496907,30.1082104 C22.5680163,30.1770062 22.6502895,30.2746219 22.702057,30.3936201 C22.6475163,30.4428928 22.6077663,30.5023918 22.5772605,30.5711877 C22.5060802,30.7245837 22.5060802,30.8835579 22.5643186,31.0239385 C22.4469174,31.0099934 22.3322895,31.0304462 22.23615,31.0750705 C22.1511035,31.0369539 22.0558884,31.0174308 21.9431093,31.0099934 C21.4568651,30.9904703 21.054743,31.3744253 21.0399523,31.8755192 C21.1508826,31.6867955 21.350557,31.5752347 21.5816616,31.5817424 C21.7036849,31.5826721 21.8220105,31.6245074 21.9246209,31.7146857 C21.6888942,32.2185686 22.1797605,32.942784 22.8730744,33.1036175 C24.0886849,33.3788007 23.5155453,34.6970773 23.4896616,34.8104975 C23.4591558,34.9480891 23.4684,35.0689466 23.5266384,35.1563359 C23.4628535,35.215835 23.3824291,35.2558109 23.2936849,35.2762637 C23.0773709,35.3376222 22.8536616,35.2688264 22.702057,35.1386721 C22.8416442,35.6081571 23.3066267,35.8684656 23.7734581,35.74203 C23.8529581,35.7187882 23.9324581,35.6816013 24.0064116,35.6416253 C24.1275105,35.7150695 24.2763419,35.7662015 24.4371907,35.7662015 C24.7967895,35.7662015 25.09815,35.5244865 25.1536151,35.1953822 L25.2312663,35.2493032 C26.8443767,36.3732781 26.5633535,38.1201341 27.7244233,39.0758381 C27.6005512,38.4696912 27.8732547,38.0020656 27.88065,37.9983469 C28.187557,39.0730491 29.2339988,39.113025 29.2339988,39.113025 C29.2339988,39.113025 29.1295395,38.72907 29.0713012,38.1842815" id="Fill-18" fill="#FFFFFF"></path>
                <path d="M31.5367256,31.9048968 C31.3980628,32.2181967 31.8297663,32.5082547 31.5533651,32.7025564 C31.6199233,32.828992 31.7179116,32.9089439 31.8519523,32.9582166 C32.0562488,32.9517089 32.2725628,32.9619353 32.480557,32.9963332 C32.57115,32.9182406 32.6340105,32.7983128 32.5914872,32.7453214 C32.49165,32.641198 32.3252547,32.9377638 32.1699523,32.7388137 L31.5367256,31.9048968 Z M33.8181907,33.4416466 C33.6416267,33.3393826 33.4474988,33.2510636 33.2367314,33.1822678 C33.2062256,33.0800038 33.2062256,32.9424121 33.2533709,32.9163813 C33.3864872,32.8689679 33.4086733,33.212947 33.6379291,33.1171907 L34.5956267,32.6690882 C34.5678942,33.0112079 34.0363535,33.06234 34.2064465,33.3663431 C34.0834988,33.446295 33.9596267,33.4630291 33.8181907,33.4416466 Z M32.7532605,34.1640027 C32.7828419,34.0533716 32.9279756,33.9948022 33.0795802,34.0292001 C33.1378186,34.0440749 33.1840395,34.0691761 33.2237895,34.1017146 C33.2718593,34.0794025 33.3393419,33.9576153 33.3624523,33.9111316 C33.5297721,33.4964974 33.019493,33.7809774 32.7088884,33.7047442 C32.4047547,33.6229329 32.0839814,33.1422919 32.036836,33.5764493 C32.0303651,33.6275813 32.0331384,33.7716806 32.076586,33.8200236 C32.1302023,33.8070082 32.1782721,33.8070082 32.2402081,33.8200236 C32.383493,33.8609293 32.4768593,33.9799274 32.4472779,34.0868398 C32.4389581,34.154706 32.3788709,34.205838 32.303993,34.2197831 C32.3705512,34.2774228 32.4417314,34.3239065 32.5378709,34.3527264 C32.4472779,34.5916524 32.2457547,34.9263347 31.8436326,34.5916524 C31.4063826,34.205838 30.9876209,34.0282704 30.7121442,34.154706 C30.8803884,34.1509873 31.4313419,34.294157 31.237214,35.2619468 C31.1068709,35.8773904 31.0551035,36.3059698 31.3074698,36.857266 C31.3093186,36.8637737 31.3934407,36.6229883 31.5367256,36.5365287 C31.4618477,36.9195541 31.5385744,37.2988608 31.7280802,37.6158793 C32.0617953,37.423437 32.3197081,37.1343086 32.4250919,36.7503536 C32.5184581,36.8842265 32.4768593,37.1594098 32.4787081,37.1584801 C32.9732721,36.7773141 33.1267256,36.3896404 33.2857256,35.7714077 C33.575993,34.8315081 34.1241733,34.9579436 34.2767023,35.0490516 C34.0908942,34.8008289 33.6416267,34.76922 33.0712605,34.8872885 C32.5563593,34.9997789 32.5350977,34.6158239 32.5656035,34.3573747 C32.6589698,34.3768979 32.7440163,34.3741089 32.8244407,34.3527264 C32.7662023,34.299735 32.7356965,34.2300095 32.7532605,34.1640027 Z M30.3812023,30.220329 C30.3812023,30.220329 30.8230744,30.2826171 30.7084465,30.5838312 C30.6298709,30.7651175 30.7759291,30.7985857 30.7796267,30.7985857 C30.7796267,30.7985857 30.919214,30.8385617 30.98115,30.6609941 C31.0449349,30.4899342 30.9256849,30.2826171 30.7371035,30.2305554 C30.5993651,30.1896498 30.3812023,30.220329 30.3812023,30.220329 Z M35.7585453,32.0378401 C35.7585453,32.0378401 35.6060163,32.0053015 35.6309756,31.8072812 C35.6633302,31.6343619 35.8667023,31.5218715 36.0617547,31.5590584 C36.2152081,31.594386 36.3889988,31.7143138 36.3889988,31.7143138 C36.3889988,31.7143138 35.9591442,31.5702145 35.932336,31.884444 C35.9184698,32.0824644 35.762243,32.0378401 35.7585453,32.0378401 Z M30.7796267,41.4647264 C30.7916442,41.2555499 30.6927314,40.939461 30.4477605,40.4067583 C30.2212779,39.9307656 30.2064872,39.4361795 30.2416151,39.1498401 C30.0206791,39.4333904 29.8699988,39.8099081 29.8699988,39.8099081 C29.1360105,38.5120843 29.3717372,37.3137355 29.4447663,37.1212932 C29.1933244,37.3202432 28.9575977,37.6772378 28.9575977,37.6772378 C28.7754872,36.6229883 29.0592837,35.816032 29.3051791,35.3316723 C28.9881035,35.4292879 28.7616209,35.6087149 28.7616209,35.6087149 C28.9899523,34.6846197 29.3458535,34.106363 29.5889756,33.8097972 C29.2284523,33.873015 28.9797837,34.0040989 28.9797837,34.0040989 C29.3319872,32.7267279 30.2212779,31.7143138 30.5818012,31.3759128 C30.3377547,31.3508116 29.9892488,31.21322 29.9568942,30.7567504 C29.9097488,30.1162056 29.5353593,29.7657188 29.5353593,29.7657188 C30.2064872,29.9339896 30.1935453,29.8075541 30.6834872,29.8521784 C30.9598884,29.8791389 31.1419988,29.9879107 31.2797372,30.1599002 C31.5505919,29.8122025 31.85565,29.6039557 31.8621209,29.6039557 C31.8223709,29.7099384 31.7428709,29.9135368 31.7243826,30.1357287 C32.1329756,29.5528236 32.7144349,29.184673 32.7162837,29.184673 C32.6645163,29.2646249 32.5656035,29.5286521 32.5110628,29.836374 C32.7828419,29.5528236 33.502964,28.8853183 34.2563651,29.0898464 C33.615743,29.3092493 33.6092721,30.2026652 34.1824116,30.3532723 C34.4726791,30.4239274 34.7444581,30.2603049 34.8036209,29.9962778 C34.8221093,29.9246929 34.8221093,29.839163 34.8063942,29.7657188 C35.1687663,30.1561815 35.2140628,30.7697659 35.2085163,31.0468085 C35.3166733,30.8274056 35.3453302,30.5903389 35.3573477,30.4769188 C35.3619698,30.4797078 35.5505512,30.8190385 35.6171093,31.2624927 C35.8269523,31.1602286 36.0451151,31.1444242 36.3242895,31.261563 C36.7652372,31.4530757 36.6949814,31.5525507 37.3642605,31.7143138 C37.3642605,31.7143138 36.8798651,31.8537648 36.5359814,32.4032017 C36.278993,32.8271327 35.8546849,32.7267279 35.6309756,32.6216749 C35.7788826,33.0335201 36.0774698,34.154706 35.8158593,35.7054009 C35.8158593,35.7054009 35.654086,35.4850683 35.364743,35.2572984 C35.444243,35.625449 35.4941616,36.2901653 35.2593593,37.1965967 C35.2593593,37.1965967 35.137336,36.9260618 34.8683302,36.6964325 C34.8452198,37.2635332 34.6982372,38.1653162 34.0215628,39.03642 C34.0215628,39.03642 33.9947547,38.6840738 33.9060105,38.3893674 C33.785836,38.7844785 33.3670744,39.7290265 32.310464,40.4244221 C32.310464,40.4244221 32.3224814,40.0897397 32.2623942,39.7950333 C32.1385221,40.0627792 31.8990977,40.4095473 31.5505919,40.6819415 C31.0883826,41.0435844 30.8646733,41.2713544 30.7833244,41.4647264 L30.7796267,41.4647264 Z" id="Fill-20" fill="#FFFFFF"></path>
                <path d="M32.0134483,34.9435337 C31.8350355,35.0941408 31.7980587,35.3339964 31.7980587,35.3339964 C31.7425936,35.1387651 31.7620064,34.9742129 31.7888145,34.8747379 C31.6852797,34.8263949 31.5965355,34.7724738 31.482832,34.7278495 C31.6455297,35.0504461 31.3487913,35.8592618 31.5993087,36.3361842 C31.6390587,36.2116079 31.6880529,36.0944691 31.7620064,35.9894161 L31.7425936,36.0582119 C31.6935994,36.2608806 31.7250297,36.4440262 31.8100762,36.5593057 C31.8618436,36.5890553 31.9173087,36.6132268 31.9801692,36.6327499 C32.0430297,36.6457653 32.1021924,36.6485544 32.1622797,36.6457653 C32.2916983,36.5834772 32.4054017,36.4291515 32.4506983,36.2385685 L32.4673378,36.1734913 C32.4784308,36.2999269 32.4784308,36.4198547 32.4599424,36.5379232 C32.9064366,36.2534432 33.0275355,35.3981439 33.3131808,35.1852487 C33.2059483,35.1713036 33.083925,35.178741 32.9655994,35.1713036 C32.9461866,35.2744974 32.885175,35.4288231 32.7474366,35.5757115 C32.7474366,35.5757115 32.8269366,35.3405042 32.7400413,35.1313277 C32.6161692,35.0904221 32.5080122,35.0030328 32.4275878,34.8263949 C32.2750587,34.9407447 32.1419424,34.9677052 32.0134483,34.9435337" id="Fill-22" fill="#EE3338"></path>
                <path d="M56.9492703,38.3313558 C56.9187645,38.1054452 56.7801017,37.9195106 56.5878227,37.7837783 C57.1766773,37.309645 57.1923924,36.5826405 57.1923924,36.5826405 C56.8817878,36.8634018 56.6192529,36.9991341 56.3604157,37.0521255 C57.0860843,36.3734641 57.1369273,35.4186897 57.1369273,35.4186897 C56.1940203,36.8726986 55.0745494,35.4410018 52.9437645,36.5157041 C52.3641541,36.8131995 51.803032,36.7555597 51.257625,36.6133197 C55.1688401,35.9458144 56.573032,33.5937412 55.215061,32.6919582 C54.6021715,32.2903393 53.5381657,32.3498384 52.1811192,32.8862599 C50.9340785,33.3696899 49.8580552,33.7183174 48.9280901,33.9572434 C48.0748517,34.0725229 47.4554913,34.0000084 46.8906715,33.4096659 C46.8555436,33.9935007 47.2373285,34.1905914 47.2373285,34.1905914 C47.2373285,34.1905914 46.2648401,34.1199362 45.7000203,33.0610384 C45.4180727,33.8466123 45.8922994,34.2138332 45.8922994,34.2138332 C44.6618983,33.8261595 44.8874564,32.6250217 43.7402529,32.567382 C43.8197529,32.618514 43.8789157,32.6826614 43.926061,32.7644727 C43.9796773,32.8509323 44.012032,32.956915 44.023125,33.0619681 C44.0277471,33.3947911 43.7568924,33.6532403 43.4277994,33.6671854 C43.3908227,33.6671854 43.3529215,33.662537 43.3085494,33.6560293 L43.2956076,33.6560293 C43.0127355,33.6132643 42.6078401,33.4468528 42.5680901,32.6984659 L42.5606948,32.5850458 C42.574561,31.9286965 43.1430785,31.3718222 43.9519448,31.1487007 C44.1109448,31.1040763 44.272718,31.0668894 44.4169273,31.0371399 C44.9503169,30.9953046 45.4180727,31.0752565 45.7850669,31.15056 C46.6225901,31.3318463 47.463811,31.8273621 48.2791483,31.4871017 C48.139561,31.4703676 47.657939,31.4080795 47.4222122,30.8623613 C49.2054157,31.381119 49.605689,30.2655111 49.605689,30.2655111 C49.605689,30.2655111 48.890189,30.6448178 48.2948634,30.3352366 C49.7462006,29.5282803 48.6193343,28.0686933 48.6193343,28.0686933 C48.6193343,28.0686933 49.1212936,29.9782421 46.0152471,30.0628424 C44.2080087,30.1111854 42.9850029,30.436571 42.3434564,31.2277229 C41.9866308,31.6070295 41.7638459,32.0969673 41.7869564,32.6733647 C41.8026715,33.0257108 41.9015843,33.3259953 42.0504157,33.5956005 C41.8636831,33.662537 41.4375262,33.6894975 40.7405145,33.2125752 C40.9549797,33.7396999 41.774939,34.607085 43.9926192,34.9334003 C46.8074738,35.5618593 49.8709971,34.6293971 52.4575203,33.6002489 C53.4447994,33.2125752 54.1057587,33.1577244 54.4893924,33.2255906 C54.7362122,33.3036831 54.8684041,33.4626573 54.8767238,33.6960052 C54.8831948,33.7824648 54.857311,33.8837992 54.8314273,33.9749072 C54.7889041,34.0511404 54.7232703,34.1329516 54.6502413,34.225919 C53.812718,35.269942 51.1457703,36.5380162 46.4330843,35.8128711 C45.4162238,35.6706311 44.5823983,35.6380925 43.4148576,35.5776638 C40.5907587,35.4410018 37.1140203,36.0787576 35.6922645,36.3799718 C35.664532,36.8866437 35.5878052,37.4714081 35.4038459,38.0673286 C35.4038459,38.0673286 35.2651831,37.7707629 35.0553401,37.4509553 C34.9730669,38.0822034 34.7114564,39.067657 33.829561,40.0400952 C33.829561,40.0400952 33.8193924,39.7370217 33.785189,39.3865349 C33.3571831,40.0335875 32.7868169,40.6722729 32.0112297,41.1668591 C32.0112297,41.1668591 32.0398866,41.0023069 32.0657703,40.7568732 C31.8346657,41.0673841 31.6128052,41.255178 31.393718,41.445761 C31.1071483,41.6744607 30.8584797,41.9115273 30.649561,42.3531221 L30.5497238,42.5567205 L30.5340087,42.3289506 C30.490561,41.6456408 30.2825669,41.2003273 30.1115494,40.8210207 C30.0412936,40.6388047 29.9793576,40.4668152 29.934061,40.3106301 C29.8573343,40.4835493 29.8138866,40.6146332 29.8138866,40.6146332 C29.6650552,40.3617621 29.5550494,40.1293438 29.4598343,39.8625276 L29.2000727,39.9759477 C28.5400378,40.2065067 25.1714564,41.3844026 25.2250727,39.2117563 C25.2509564,37.8906907 24.726811,37.650835 24.3764564,37.6368899 C24.3505727,37.599703 24.324689,37.5615864 24.2932587,37.5243995 C23.9632413,37.1739127 23.4196831,37.1469522 23.0480669,37.4807048 C23.2588343,37.4295728 23.4871657,37.4937203 23.6387703,37.6638505 C23.682218,37.7121935 23.7099506,37.7614661 23.7312122,37.8144575 C23.6387703,37.8906907 23.5620436,37.9948141 23.5093517,38.1073046 C23.2042936,38.0385088 22.8604099,38.1073046 22.6440959,38.3043953 C22.5498052,38.2811535 22.449968,38.2755754 22.3510552,38.2811535 C21.8796017,38.3285668 21.5273983,38.7590055 21.5717703,39.2628884 C21.6577413,39.0546416 21.8472471,38.9096125 22.0783517,38.885441 C22.1855843,38.8789333 22.2854215,38.8938081 22.3824855,38.9384324 C22.3584506,39.0025799 22.3473576,39.0630086 22.3473576,39.1318044 C22.3445843,39.346559 22.4351773,39.5417903 22.5766134,39.6765929 C22.3982006,39.7686306 22.2595378,39.9471278 22.2086948,40.162812 C22.2012994,40.2241705 22.1920552,40.2827399 22.1726424,40.3571137 C21.7215262,40.5151582 21.4968924,41.0274081 21.6799273,41.4950337 C21.7104331,41.2774902 21.8509448,41.0980633 22.0681831,41.013463 C22.1504564,40.9809244 22.2308808,40.967909 22.3122297,40.9734871 C22.5229971,41.3881213 23.1442064,41.5108382 23.4585087,41.2644748 C23.8504622,40.967909 24.1444273,41.2133427 24.324689,41.5257129 C24.6852122,42.1467346 25.2167529,42.3679969 25.806532,42.4656125 C25.8120785,42.4925731 25.8185494,42.5148852 25.8240959,42.5437051 C25.874939,42.6989605 25.9803227,42.8123807 26.1051192,42.8876842 C26.0662936,42.9518316 26.0219215,43.0066824 25.9618343,43.0578144 C25.7797238,43.2047027 25.5412238,43.2223665 25.3544913,43.1600784 C25.6503052,43.5393851 26.197561,43.5960952 26.5793459,43.3032481 C26.6385087,43.2642018 26.6912006,43.2102808 26.7355727,43.152641 C26.8372587,43.1730939 26.9407936,43.1637971 27.0471017,43.1266102 C27.3087122,43.0373616 27.4862006,42.8188884 27.5351948,42.5966965 C28.0695087,42.6524769 28.5631483,42.6989605 29.0179622,42.7407958 C29.7935494,42.8802468 29.8268285,42.8960512 30.6292238,43.2772173 C31.4824622,43.6658207 32.0824099,44.657782 32.0824099,44.657782 C32.1064448,44.3082248 32.0879564,43.9707535 32.0130785,43.6602426 C32.9143866,43.957738 33.9220029,43.9428633 34.4516948,43.1331179 C34.0717587,43.2102808 33.829561,42.7482332 34.1734448,42.290834 C34.8103692,41.4987524 34.5043866,40.5681495 34.5043866,40.5681495 C34.898189,41.3509344 34.8223866,41.9189647 34.6781773,42.2127414 C35.8263052,42.2443503 36.7877006,41.8650437 38.9425203,40.1200471 C40.5602529,38.8054892 41.7869564,38.2941689 42.5680901,38.0738363 C42.0901657,39.1875848 43.1726599,39.778857 44.5722297,39.8987848 C45.1296541,39.9898928 45.6833808,40.0159237 45.8617936,40.0847195 C45.9505378,40.1200471 46.1640785,40.1823352 46.4229157,40.2557793 C46.6198169,40.4547294 46.5689738,40.6722729 46.5689738,40.6722729 C45.0270436,41.3881213 43.682939,40.9381595 43.0247529,40.4974944 C42.1428576,39.9313234 41.6797238,40.1023833 41.4199622,40.4091754 C40.9457355,40.3970897 40.5371424,40.7698886 40.525125,41.2774902 C40.6369797,41.1064303 40.8440494,40.9762761 41.0770029,40.9827838 C41.1398634,40.9827838 41.1907064,40.9985882 41.2544913,41.0209004 C41.2239855,41.1891712 41.2739041,41.3751059 41.4023983,41.5275723 L41.4329041,41.5684779 C41.4023983,41.627977 41.3681948,41.6939838 41.3469331,41.7692873 C41.337689,41.8092633 41.331218,41.8427315 41.3219738,41.8780591 C41.2877703,41.8901448 41.258189,41.9078086 41.2239855,41.9291911 C40.8116948,42.1551017 40.6591657,42.6924528 40.9170785,43.1331179 C40.9124564,42.9090667 41.0252355,42.7101166 41.2147413,42.5966965 C41.297939,42.5483535 41.3802122,42.5260413 41.468032,42.5148852 C41.4818983,42.5437051 41.4994622,42.5632282 41.5234971,42.5873997 C41.5992994,42.6859451 41.7056076,42.7612486 41.8285552,42.8021542 C41.854439,42.8068026 41.8738517,42.8095916 41.8978866,42.8160993 C41.9136017,42.9230118 41.9413343,43.0289945 41.9746134,43.152641 C41.7638459,43.5877281 41.9311657,44.1148528 42.382282,44.3454118 C42.2574855,44.1622661 42.2380727,43.9242698 42.3406831,43.7178824 C42.3785843,43.6453678 42.4285029,43.5895875 42.4848924,43.5458928 C42.9360087,43.7894672 43.5535203,43.3720439 43.6302471,43.3060371 C45.4901773,41.6716716 46.288875,43.1228915 46.9923576,43.0373616 C47.0182413,43.0996497 47.0367297,43.1703048 47.0478227,43.2400303 C47.0783285,43.471519 46.9794157,43.6723284 46.8250378,43.804342 C47.3075843,43.7411242 47.6320552,43.3060371 47.5701192,42.8226071 L47.5590262,42.7668267 C47.7124797,42.6301647 47.799375,42.430285 47.8012238,42.242491 C48.1136773,42.1467346 48.4778983,41.9896199 48.855061,41.7237333 C48.9927994,41.9291911 49.0260785,42.2201788 48.8800203,42.6785077 C48.8800203,42.6785077 49.5169448,42.2201788 49.4189564,41.2486703 C49.5696366,41.488526 49.6417413,41.8120523 49.5696366,42.2861856 C49.5696366,42.2861856 50.2435378,41.7581312 50.1205901,40.8647153 L50.1178169,40.7903414 C50.0309215,40.1563043 50.462625,40.0698447 50.6974273,40.0735634 L50.8582762,40.0847195 C50.4348924,39.5724695 49.4374448,39.642195 48.9428808,39.6459137 C48.2393983,39.6542808 47.9796366,39.215475 48.2273808,38.9495885 C48.2273808,38.9495885 47.9519041,38.7590055 47.5238983,38.5191498 C48.3725145,38.7794583 49.219282,39.0630086 49.9911715,39.1875848 C51.8547994,39.5101814 52.3410436,39.0146656 53.0195669,38.4113077 C53.4309331,38.0301417 53.8487703,37.6750065 54.2407238,37.5560084 C53.5640494,38.4261825 54.2841715,39.4925176 54.3414855,40.0094159 C54.4052703,40.6508905 53.9171773,40.6629762 53.4688343,40.6741323 C52.6645901,40.6917961 52.3863401,40.9232847 52.3336483,41.2310065 C52.2809564,41.244022 52.2236424,41.2644748 52.1700262,41.2932946 C51.7429448,41.5275723 51.5774738,42.0528376 51.8224448,42.5083775 C51.8261424,42.2861856 51.9416948,42.0760795 52.1515378,41.9803231 C52.2236424,41.9403472 52.3012936,41.9143163 52.3863401,41.9078086 C52.3475145,42.1774139 52.5305494,42.4433004 52.8272878,42.5260413 C52.9114099,42.5539315 52.9983052,42.5585799 53.0768808,42.5483535 C53.0565436,42.6859451 53.0768808,42.8123807 53.1443634,42.9323085 C53.1952064,43.0336429 53.2691599,43.1061574 53.3542064,43.152641 L53.3320203,43.2158588 C53.1822645,43.664891 53.4447994,44.1622661 53.9236483,44.3147325 C53.7812878,44.1566881 53.7202762,43.9196214 53.784061,43.7002186 C53.819189,43.5895875 53.8792762,43.5049872 53.9633983,43.425965 C54.148282,43.5170729 54.386782,43.5049872 54.5781366,43.3683252 C54.7038576,43.283725 54.7981483,43.1600784 54.857311,43.0206275 C54.9386599,43.1201025 55.044968,43.198195 55.1799331,43.246538 C55.3287645,43.3032481 55.4896134,43.3125448 55.6375203,43.283725 C55.6439913,43.3125448 55.658782,43.3441537 55.6754215,43.3794813 C55.8954331,43.804342 56.4112587,43.9800502 56.8762413,43.7494912 C56.6497587,43.7411242 56.4510087,43.616548 56.3410029,43.4231759 C56.2753692,43.286514 56.2642762,43.144274 56.2901599,43.002034 L56.3502471,42.9732141 C56.5961424,42.8188884 56.9298576,42.4488784 56.5776541,41.7655686 C56.1256134,40.8879571 55.7687878,41.0209004 55.9629157,40.1488669 C56.016532,39.8829804 56.175532,39.548298 56.305875,39.1559759 C56.5037006,39.1178593 56.6737936,39.0211733 56.7958169,38.8919488 C56.8281715,38.8984565 56.8660727,38.9124016 56.8984273,38.928206 C57.1054971,39.0211733 57.2265959,39.2284905 57.2580262,39.4265108 C57.4429099,39.0183843 57.3023983,38.5619148 56.9492703,38.3313558" id="Fill-24" fill="#FFFFFF"></path>
                <path d="M29.0713012,70.7695132 C28.9067547,71.0595712 28.7856558,71.2947786 28.7856558,71.2947786 C28.4399233,70.1047969 28.5758128,69.1444444 28.7625453,68.5327195 C28.5212721,68.6833265 28.3678186,68.8190588 28.3678186,68.8190588 C28.426057,68.4890248 28.5064814,68.184092 28.5758128,67.896823 C26.2675395,66.9076507 24.6914058,66.0690855 24.8892314,64.571382 C24.9705802,63.9838285 25.4179988,63.5292183 25.160086,62.9900078 C25.0916791,62.8635723 25.0121791,62.7715346 24.9243593,62.7045982 C24.9206616,62.6404507 24.8994,62.580022 24.8790628,62.5177339 C24.7191384,62.0501082 24.2264233,61.8158306 23.7484988,61.9841014 C23.9574174,62.0212884 24.1469233,62.1672471 24.2264233,62.3912983 C24.2532314,62.4675315 24.2615512,62.5446944 24.2597023,62.6107012 C24.1099465,62.6692706 23.9777547,62.7668863 23.9047256,62.8905328 C23.8492605,62.7994248 23.7614407,62.7269103 23.6597547,62.6757783 C23.5442023,62.6292946 23.4277256,62.6218573 23.3094,62.6404507 C23.2465395,62.540046 23.1522488,62.4498677 23.0440919,62.3792125 C22.63365,62.1235524 22.1030337,62.2564957 21.8414233,62.6906531 C22.0327779,62.5846703 22.2555628,62.580022 22.4496907,62.6953014 C22.5680163,62.7640973 22.6502895,62.8617129 22.702057,62.9751331 C22.6475163,63.0281244 22.6077663,63.0894829 22.5772605,63.1582787 C22.5060802,63.3116748 22.5060802,63.4715786 22.5643186,63.6128889 C22.4469174,63.5952251 22.3322895,63.6184669 22.23615,63.6658803 C22.1511035,63.6249746 22.0558884,63.6063812 21.9431093,63.5980141 C21.4568651,63.5794207 21.054743,63.9587273 21.0399523,64.4672586 C21.1508826,64.2803942 21.350557,64.1586071 21.5816616,64.1697631 C21.7036849,64.1716225 21.8220105,64.2125281 21.9246209,64.2999174 C21.6888942,64.8019409 22.1797605,65.5308047 22.8730744,65.6907085 C24.0886849,65.9640324 23.5155453,67.285098 23.4896616,67.3947995 C23.4591558,67.5333208 23.4684,67.6569673 23.5266384,67.7452863 C23.4628535,67.7992073 23.3824291,67.8391833 23.2936849,67.8633548 C23.0773709,67.9256429 22.8536616,67.8549877 22.702057,67.7239038 C22.8416442,68.1887404 23.3066267,68.4555566 23.7734581,68.3328397 C23.8529581,68.3068089 23.9324581,68.269622 24.0064116,68.226857 C24.1275105,68.3040199 24.2763419,68.3505035 24.4371907,68.3505035 C24.7967895,68.3505035 25.09815,68.1097182 25.1536151,67.7750358 L25.2312663,67.8363942 C26.8443767,68.9566505 26.5633535,70.7072251 27.7244233,71.6592105 C27.6005512,71.0558525 27.8732547,70.5872973 27.88065,70.5872973 C28.187557,71.6564214 29.2339988,71.6963974 29.2339988,71.6963974 C29.2339988,71.6963974 29.1295395,71.3170907 29.0713012,70.7695132" id="Fill-26" fill="#FFFFFF"></path>
                <path d="M31.5367256,64.4933824 C31.3980628,64.8020339 31.8297663,65.0939513 31.5533651,65.291042 C31.6199233,65.4202666 31.7179116,65.4955701 31.8519523,65.5439131 C32.0562488,65.5374054 32.2725628,65.5504208 32.480557,65.5857484 C32.57115,65.5104449 32.6340105,65.3867983 32.5914872,65.333807 C32.49165,65.2268945 32.3252547,65.5262493 32.1699523,65.3263696 L31.5367256,64.4933824 Z M33.8181907,66.0273432 C33.6416267,65.9250791 33.4474988,65.8386195 33.2367314,65.7679643 C33.2062256,65.6638409 33.2062256,65.5262493 33.2533709,65.5020778 C33.3864872,65.4555941 33.4086733,65.8014326 33.6379291,65.7038169 L34.5956267,65.2538551 C34.5678942,65.6015528 34.0363535,65.6480365 34.2064465,65.9501803 C34.0834988,66.0319915 33.9596267,66.0468663 33.8181907,66.0273432 Z M32.7532605,66.7496992 C32.7828419,66.6418572 32.9279756,66.579569 33.0795802,66.6186153 C33.1378186,66.6307011 33.1840395,66.6595209 33.2237895,66.6883408 C33.2718593,66.6641693 33.3393419,66.5461008 33.3624523,66.4977578 C33.5297721,66.0821939 33.019493,66.3648145 32.7088884,66.2885813 C32.4047547,66.2095591 32.0839814,65.7307774 32.036836,66.1621458 C32.0303651,66.2160668 32.0331384,66.3592365 32.076586,66.4085092 C32.1302023,66.3936344 32.1782721,66.3936344 32.2402081,66.4085092 C32.383493,66.4503445 32.4768593,66.568413 32.4472779,66.6762551 C32.4389581,66.7385432 32.3788709,66.7859565 32.303993,66.8054796 C32.3705512,66.86126 32.4417314,66.9077437 32.5378709,66.9365636 C32.4472779,67.1801379 32.2457547,67.5101719 31.8436326,67.1736302 C31.4063826,66.7878158 30.9876209,66.6111779 30.7121442,66.7385432 C30.8803884,66.7385432 31.4313419,66.8789238 31.237214,67.8495026 C31.1068709,68.465876 31.0551035,68.8963147 31.3074698,69.4438922 C31.3093186,69.4550483 31.3934407,69.2058958 31.5367256,69.1240846 C31.4618477,69.5080396 31.5385744,69.8817683 31.7280802,70.2025055 C32.0617953,70.0109928 32.3197081,69.7190755 32.4250919,69.3388391 C32.5184581,69.4717824 32.4768593,69.7451063 32.4787081,69.7404579 C32.9732721,69.3657996 33.1267256,68.9734775 33.2857256,68.3598932 C33.575993,67.4190639 34.1241733,67.5454995 34.2767023,67.6366075 C34.0908942,67.3902441 33.6416267,67.3558462 33.0712605,67.4794927 C32.5563593,67.5864051 32.5350977,67.1996611 32.5656035,66.9412119 C32.6589698,66.9625944 32.7440163,66.9588757 32.8244407,66.9384229 C32.7662023,66.8835722 32.7356965,66.8147764 32.7532605,66.7496992 Z M30.3812023,62.8041662 C30.3812023,62.8041662 30.8230744,62.8711026 30.7084465,63.1676684 C30.6298709,63.350814 30.7759291,63.3852119 30.7796267,63.3852119 C30.7796267,63.3852119 30.919214,63.4270472 30.98115,63.2476203 C31.0449349,63.0719121 30.9256849,62.8711026 30.7371035,62.8134629 C30.5993651,62.7772056 30.3812023,62.8041662 30.3812023,62.8041662 Z M35.7585453,64.622607 C35.7585453,64.622607 35.6060163,64.5928574 35.6309756,64.397626 C35.6633302,64.2200585 35.8667023,64.1057087 36.0617547,64.1494033 C36.2152081,64.1828715 36.3889988,64.3027994 36.3889988,64.3027994 C36.3889988,64.3027994 35.9591442,64.150333 35.932336,64.4710702 C35.9184698,64.6663016 35.762243,64.622607 35.7585453,64.622607 Z M30.7796267,74.0532119 C30.7916442,73.8393871 30.6927314,73.5251575 30.4477605,72.9952438 C30.2212779,72.5136731 30.2064872,72.024665 30.2416151,71.7336773 C30.0206791,72.0172276 29.8699988,72.3983936 29.8699988,72.3983936 C29.1360105,71.0996402 29.3717372,69.8985024 29.4447663,69.703271 C29.1933244,69.9031507 28.9575977,70.2657233 28.9575977,70.2657233 C28.7754872,69.2124036 29.0592837,68.4035879 29.3051791,67.9164391 C28.9881035,68.0131251 28.7616209,68.1934817 28.7616209,68.1934817 C28.9899523,67.2712459 29.3458535,66.6902002 29.5889756,66.3982828 C29.2284523,66.4577819 28.9797837,66.5925845 28.9797837,66.5925845 C29.3319872,65.3133541 30.2212779,64.3000104 30.5818012,63.9634687 C30.3377547,63.9346488 29.9892488,63.7989165 29.9568942,63.3443063 C29.9097488,62.7046911 29.5353593,62.3514153 29.5353593,62.3514153 C30.2064872,62.5224752 30.1935453,62.397899 30.6834872,62.4406639 C30.9598884,62.4676245 31.1419988,62.5763962 31.2797372,62.7483858 C31.5505919,62.3988287 31.85565,62.1915115 31.8621209,62.1915115 C31.8223709,62.2947053 31.7428709,62.500163 31.7243826,62.7195659 C32.1329756,62.1366608 32.7144349,61.7666509 32.7162837,61.7731586 C32.6645163,61.8503215 32.5656035,62.1124893 32.5110628,62.4202111 C32.7828419,62.1366608 33.502964,61.4738038 34.2563651,61.6774022 C33.615743,61.8968051 33.6092721,62.7883617 34.1824116,62.9352501 C34.4726791,63.0077646 34.7444581,62.8441421 34.8036209,62.5847633 C34.8221093,62.5113191 34.8221093,62.4276485 34.8063942,62.3532747 C35.1687663,62.7437374 35.2140628,63.3582514 35.2085163,63.6334347 C35.3166733,63.4140318 35.3453302,63.1769651 35.3573477,63.0654043 C35.3619698,63.0681934 35.5505512,63.4075241 35.6171093,63.8500485 C35.8269523,63.7412768 36.0451151,63.7310504 36.3242895,63.8454002 C36.7652372,64.0387722 36.6949814,64.1391769 37.3642605,64.3027994 C37.3642605,64.3027994 36.8798651,64.4441097 36.5359814,64.9870388 C36.278993,65.4146885 35.8546849,65.3180025 35.6309756,65.2110901 C35.7788826,65.6220056 36.0774698,66.7385432 35.8158593,68.2929568 C35.8158593,68.2929568 35.654086,68.0707649 35.364743,67.8411356 C35.444243,68.2130049 35.4941616,68.8777212 35.2593593,69.7822932 C35.2593593,69.7822932 35.137336,69.5117583 34.8683302,69.2839884 C34.8452198,69.8492297 34.6982372,70.7491534 34.0215628,71.6202572 C34.0215628,71.6202572 33.9947547,71.2725594 33.9060105,70.9732046 C33.785836,71.3729641 33.3670744,72.3175121 32.310464,73.0082592 C32.310464,73.0082592 32.3224814,72.6754362 32.2623942,72.3788705 C32.1385221,72.647546 31.8990977,72.9989625 31.5505919,73.2657787 C31.0883826,73.63207 30.8646733,73.8579805 30.7833244,74.0532119 L30.7796267,74.0532119 Z" id="Fill-28" fill="#FFFFFF"></path>
                <path d="M32.0134483,67.5293232 C31.8350355,67.6762116 31.7980587,67.9197859 31.7980587,67.9197859 C31.7425936,67.7245546 31.7620064,67.5627914 31.7888145,67.4642461 C31.6852797,67.4159031 31.5965355,67.359193 31.482832,67.3145687 C31.6455297,67.6362356 31.3487913,68.4450513 31.5993087,68.921044 C31.6390587,68.7973974 31.6880529,68.6839773 31.7620064,68.5752055 L31.7425936,68.642142 C31.6935994,68.8466701 31.7250297,69.0298157 31.8100762,69.1478842 C31.8618436,69.1767041 31.9173087,69.2008756 31.9801692,69.2185394 C32.0430297,69.2315548 32.1021924,69.2380625 32.1622797,69.2343438 C32.2916983,69.1720557 32.4054017,69.0186597 32.4506983,68.8197096 L32.4673378,68.7574215 C32.4784308,68.883857 32.4784308,69.0009959 32.4599424,69.1274314 C32.9064366,68.8373734 33.0275355,67.9830037 33.3131808,67.7691789 C33.2059483,67.7570931 33.083925,67.7636008 32.9655994,67.7570931 C32.9461866,67.8602868 32.885175,68.0127533 32.7474366,68.161501 C32.7474366,68.161501 32.8269366,67.9262936 32.7400413,67.7171172 C32.6161692,67.6762116 32.5080122,67.5869629 32.4275878,67.4159031 C32.2750587,67.5293232 32.1419424,67.5534947 32.0134483,67.5293232" id="Fill-30" fill="#EE3338"></path>
                <path d="M56.9492703,70.9170523 C56.9187645,70.6892824 56.7801017,70.5089258 56.5878227,70.3713342 C57.1766773,69.8925525 57.1923924,69.1739151 57.1923924,69.1720557 C56.8817878,69.4490984 56.6192529,69.5848306 56.3604157,69.637822 C57.0860843,68.9573012 57.1369273,68.0034565 57.1369273,68.0034565 C56.1940203,69.4602544 55.0745494,68.0266984 52.9437645,69.1041896 C52.3641541,69.3979663 51.803032,69.344975 51.257625,69.1980866 C55.1688401,68.5333702 56.573032,66.181297 55.215061,65.276725 C54.6021715,64.8760359 53.5381657,64.9373943 52.1811192,65.4766048 C50.9340785,65.9535271 49.8580552,66.3086623 48.9280901,66.5457289 C48.0748517,66.6600787 47.4554913,66.5810565 46.8906715,65.9925734 C46.8555436,66.5791972 47.2373285,66.7753582 47.2373285,66.7753582 C47.2373285,66.7753582 46.2648401,66.7047031 45.7000203,65.6476646 C45.4180727,66.4360275 45.8922994,66.7995297 45.8922994,66.7995297 C44.6618983,66.411856 44.8874564,65.2144369 43.7402529,65.1530785 C43.8197529,65.2023512 43.8789157,65.2702173 43.926061,65.3529582 C43.9796773,65.4412772 44.012032,65.5407522 44.023125,65.6476646 C44.0277471,65.9842063 43.7568924,66.2417258 43.4277994,66.2547412 C43.3908227,66.2547412 43.3529215,66.2519522 43.3085494,66.2445148 L43.2956076,66.2445148 C43.0127355,66.1998905 42.6078401,66.0325493 42.5680901,65.2832327 L42.5606948,65.1707423 C42.574561,64.517182 43.1430785,63.9556594 43.9519448,63.7316082 C44.1109448,63.6925619 44.272718,63.6544453 44.4169273,63.6256254 C44.9503169,63.5791418 45.4180727,63.6628123 45.7850669,63.7362565 C46.6225901,63.9119648 47.463811,64.4167773 48.2791483,64.0755872 C48.139561,64.0551344 47.657939,63.9919167 47.4222122,63.4480578 C49.2054157,63.9649561 49.605689,62.8539967 49.605689,62.8539967 C49.605689,62.8539967 48.890189,63.231444 48.2948634,62.9227925 C49.7462006,62.1130471 48.6193343,60.6525305 48.6193343,60.6525305 C48.6193343,60.6525305 49.1212936,62.565798 46.0152471,62.6503982 C44.2080087,62.6950225 42.9850029,63.0204082 42.3434564,63.8115601 C41.9866308,64.1945854 41.7638459,64.6789452 41.7869564,65.2599909 C41.8026715,65.6141964 41.9015843,65.9107621 42.0504157,66.1859454 C41.8636831,66.2519522 41.4375262,66.2789127 40.7405145,65.8010607 C40.9549797,66.3300448 41.774939,67.1955705 43.9926192,67.5190968 C46.8074738,68.1456965 49.8709971,67.216953 52.4575203,66.1868751 C53.4447994,65.8010607 54.1057587,65.7452803 54.4893924,65.8112871 C54.7362122,65.891239 54.8684041,66.0464944 54.8767238,66.2835611 C54.8831948,66.3709504 54.857311,66.4704254 54.8314273,66.556885 C54.7889041,66.6386963 54.7232703,66.7223668 54.6502413,66.8134748 C53.812718,67.8556385 51.1457703,69.1265018 46.4330843,68.400427 C45.4162238,68.2591167 44.5823983,68.2228594 43.4148576,68.1661493 C40.5907587,68.0266984 37.1140203,68.6607355 35.6922645,68.9656683 C35.664532,69.4741995 35.5878052,70.058964 35.4038459,70.6558142 C35.4038459,70.6558142 35.2651831,70.3601781 35.0553401,70.0347925 C34.9730669,70.6706889 34.7114564,71.6505645 33.829561,72.6257917 C33.829561,72.6257917 33.8193924,72.3264369 33.785189,71.9740908 C33.3571831,72.6174246 32.7868169,73.2598288 32.0112297,73.757204 C32.0112297,73.757204 32.0398866,73.5861441 32.0657703,73.3462884 C31.8346657,73.6567993 31.6128052,73.8436636 31.393718,74.0295982 C31.1071483,74.2629462 30.8584797,74.4990832 30.649561,74.940678 L30.5497238,75.1461357 L30.5340087,74.9137174 C30.490561,74.2331967 30.2825669,73.7860238 30.1115494,73.4067172 C30.0412936,73.2263606 29.9793576,73.0562304 29.934061,72.8944672 C29.8573343,73.0692458 29.8138866,73.2021891 29.8138866,73.2021891 C29.6650552,72.949318 29.5550494,72.7168997 29.4598343,72.4510131 L29.2000727,72.5625739 C28.5400378,72.7949922 25.1714564,73.9700991 25.2250727,71.8021012 C25.2509564,70.4763872 24.726811,70.2393206 24.3764564,70.2253755 C24.3505727,70.1872589 24.324689,70.1500719 24.2932587,70.1147444 C23.9632413,69.7596092 23.4196831,69.7326487 23.0480669,70.0654717 C23.2588343,70.0152693 23.4871657,70.0784871 23.6387703,70.252336 C23.682218,70.2988197 23.7099506,70.3471627 23.7312122,70.4010837 C23.6387703,70.4801059 23.5620436,70.5842293 23.5093517,70.6957901 C23.2042936,70.6269943 22.8604099,70.6957901 22.6440959,70.8854435 C22.5498052,70.8659203 22.449968,70.8612719 22.3510552,70.8659203 C21.8796017,70.912404 21.5273983,71.344702 21.5717703,71.8485849 C21.6577413,71.6394084 21.8472471,71.4971684 22.0783517,71.4711376 C22.1855843,71.4674189 22.2854215,71.484153 22.3824855,71.5222696 C22.3584506,71.5826984 22.3473576,71.6505645 22.3473576,71.7193603 C22.3445843,71.9257478 22.4351773,72.1274868 22.5766134,72.2678675 C22.3982006,72.3580458 22.2595378,72.5328244 22.2086948,72.7457195 C22.2012994,72.8080076 22.1920552,72.8702957 22.1726424,72.9390916 C21.7215262,73.1008547 21.4968924,73.614964 21.6799273,74.0788709 C21.7104331,73.8631867 21.8509448,73.6856191 22.0681831,73.5991595 C22.1504564,73.5684803 22.2308808,73.5508165 22.3122297,73.5601133 C22.5229971,73.9747475 23.1442064,74.1002534 23.4585087,73.8501713 C23.8504622,73.5508165 24.1444273,73.7990393 24.324689,74.1141985 C24.6852122,74.7342905 25.2167529,74.9583418 25.806532,75.0531684 C25.8120785,75.0810586 25.8185494,75.0987224 25.8240959,75.1284719 C25.874939,75.2883757 25.9803227,75.3971475 26.1051192,75.4752401 C26.0662936,75.5375282 26.0219215,75.5905195 25.9618343,75.6407219 C25.7797238,75.7876102 25.5412238,75.8080631 25.3544913,75.7439156 C25.6503052,76.1334487 26.197561,76.1827214 26.5793459,75.8917336 C26.6385087,75.8517577 26.6912006,75.7978367 26.7355727,75.7429859 C26.8372587,75.7560014 26.9407936,75.7476343 27.0471017,75.708588 C27.3087122,75.6211987 27.4862006,75.4045849 27.5351948,75.1870414 C28.0695087,75.2418921 28.5631483,75.2883757 29.0179622,75.3311407 C29.7935494,75.4705917 29.8268285,75.4845368 30.6292238,75.8647731 C31.4824622,76.2570952 32.0824099,77.2444082 32.0824099,77.2444082 C32.1064448,76.8957807 32.0879564,76.559239 32.0130785,76.2487282 C32.9143866,76.5415752 33.9220029,76.5285598 34.4516948,75.7206738 C34.0717587,75.794118 33.829561,75.3357891 34.1734448,74.8802492 C34.8103692,74.087238 34.5043866,73.1538461 34.5043866,73.1538461 C34.898189,73.9394199 34.8223866,74.5065206 34.6781773,74.8049457 C35.8263052,74.8300468 36.7877006,74.4507402 38.9425203,72.7057436 C40.5602529,71.3893263 41.7869564,70.875217 42.5680901,70.6595329 C42.0901657,71.7770001 43.1726599,72.3645535 44.5722297,72.4844814 C45.1296541,72.5755893 45.6833808,72.6016202 45.8617936,72.6666973 C45.9505378,72.7057436 46.1640785,72.769891 46.4229157,72.8414759 C46.6198169,73.0367072 46.5689738,73.2598288 46.5689738,73.2598288 C45.0270436,73.9738178 43.682939,73.5257153 43.0247529,73.0850502 C42.1428576,72.5133012 41.6797238,72.6880798 41.4199622,72.9985906 C40.9457355,72.9855752 40.5371424,73.3555852 40.525125,73.8631867 C40.6369797,73.6902675 40.8440494,73.566621 41.0770029,73.5684803 C41.1398634,73.5684803 41.1907064,73.5861441 41.2544913,73.6038079 C41.2239855,73.7785865 41.2739041,73.9673101 41.4023983,74.1160578 L41.4329041,74.1578931 C41.4023983,74.2118142 41.3681948,74.2824693 41.3469331,74.3531245 C41.337689,74.3931004 41.331218,74.4247093 41.3219738,74.4665446 C41.2877703,74.4777007 41.258189,74.4935052 41.2239855,74.5130283 C40.8116948,74.7407982 40.6591657,75.284657 40.9170785,75.7188144 C40.9124564,75.4910445 41.0252355,75.2995318 41.2147413,75.185182 C41.297939,75.1377687 41.3802122,75.1135972 41.468032,75.1043004 C41.4818983,75.1284719 41.4994622,75.1498544 41.5234971,75.1740259 C41.5992994,75.273501 41.7056076,75.3469452 41.8285552,75.3813431 C41.854439,75.3952882 41.8738517,75.3952882 41.8978866,75.4045849 C41.9136017,75.5077786 41.9413343,75.614691 41.9746134,75.7439156 C41.7638459,76.175284 41.9311657,76.7005493 42.382282,76.932038 C42.2574855,76.749822 42.2380727,76.505318 42.3406831,76.3063679 C42.3785843,76.2329237 42.4285029,76.178073 42.4848924,76.1334487 C42.9360087,76.3751637 43.5535203,75.9623888 43.6302471,75.896382 C45.4901773,74.2601572 46.288875,75.708588 46.9923576,75.6211987 C47.0182413,75.6853462 47.0367297,75.7560014 47.0478227,75.8257268 C47.0783285,76.0572155 46.9794157,76.2626733 46.8250378,76.3928275 C47.3075843,76.3286801 47.6320552,75.896382 47.5701192,75.4083036 L47.5590262,75.3543825 C47.7124797,75.2093535 47.799375,75.0178408 47.8012238,74.8272578 C48.1136773,74.7342905 48.4778983,74.5725274 48.855061,74.3131485 C48.9927994,74.5130283 49.0260785,74.809594 48.8800203,75.2669933 C48.8800203,75.2669933 49.5169448,74.809594 49.4189564,73.8325075 C49.5696366,74.0760819 49.6417413,74.3949598 49.5696366,74.8737415 C49.5696366,74.8700228 50.2435378,74.3419684 50.1205901,73.4513415 L50.1178169,73.3797567 C50.0309215,72.7410712 50.462625,72.6555412 50.6974273,72.6555412 L50.8582762,72.6666973 C50.4348924,72.1590957 49.4374448,72.2316102 48.9428808,72.2343993 C48.2393983,72.240907 47.9796366,71.8076793 48.2273808,71.5334257 C48.2273808,71.5334257 47.9519041,71.344702 47.5238983,71.102987 C48.3725145,71.3632955 49.219282,71.6440568 49.9911715,71.7770001 C51.8547994,72.0940186 52.3410436,71.5994325 53.0195669,70.9951449 C53.4309331,70.6158382 53.8487703,70.2634921 54.2407238,70.1389159 C53.5640494,71.0100197 54.2841715,72.0856516 54.3414855,72.5988312 C54.4052703,73.2384463 53.9171773,73.2496024 53.4688343,73.2626178 C52.6645901,73.2784223 52.3863401,73.5089812 52.3336483,73.8167031 C52.2809564,73.8297185 52.2236424,73.8520306 52.1700262,73.8827099 C51.7429448,74.1141985 51.5774738,74.6329561 51.8224448,75.0977927 C51.8261424,74.8700228 51.9416948,74.6636353 52.1515378,74.5613713 C52.2236424,74.522325 52.3012936,74.5037316 52.3863401,74.4935052 C52.3475145,74.7640401 52.5305494,75.0271376 52.8272878,75.1135972 C52.9114099,75.139628 52.9983052,75.1461357 53.0768808,75.1377687 C53.0565436,75.273501 53.0768808,75.3971475 53.1443634,75.5198644 C53.1952064,75.6174801 53.2691599,75.6899946 53.3542064,75.7383376 L53.3320203,75.802485 C53.1822645,76.2505875 53.4447994,76.749822 53.9236483,76.9032181 C53.7812878,76.7423846 53.7202762,76.505318 53.784061,76.2887041 C53.819189,76.178073 53.8792762,76.086965 53.9633983,76.0153802 C54.148282,76.1046288 54.386782,76.0916134 54.5781366,75.9558811 C54.7038576,75.8675621 54.7981483,75.7476343 54.857311,75.603535 C54.9386599,75.705799 55.044968,75.7838916 55.1799331,75.8387423 C55.3287645,75.8917336 55.4896134,75.9010304 55.6375203,75.8675621 C55.6439913,75.8982414 55.658782,75.9317096 55.6754215,75.9633185 C55.8954331,76.3928275 56.4112587,76.5657467 56.8762413,76.3351878 C56.6497587,76.3286801 56.4510087,76.2059632 56.3410029,76.0088725 C56.2753692,75.8722105 56.2642762,75.7281112 56.2901599,75.5895899 L56.3502471,75.5589106 C56.5961424,75.4045849 56.9298576,75.034575 56.5776541,74.3531245 C56.1256134,73.4773723 55.7687878,73.6038079 55.9629157,72.7345635 C56.016532,72.4686769 56.175532,72.1386429 56.305875,71.7388835 C56.5037006,71.7063449 56.6737936,71.6105885 56.7958169,71.4804343 C56.8281715,71.486942 56.8660727,71.4980981 56.8984273,71.5157619 C57.1054971,71.6105885 57.2265959,71.814187 57.2580262,72.0149964 C57.4429099,71.6068699 57.3023983,71.15133 56.9492703,70.9170523" id="Fill-32" fill="#FFFFFF"></path>
                <path d="M29.0713012,54.472156 C28.9067547,54.7622141 28.7856558,54.9937027 28.7856558,54.9937027 C28.4399233,53.8074397 28.5758128,52.8470873 28.7625453,52.2372216 C28.5212721,52.3859694 28.3678186,52.5254203 28.3678186,52.5254203 C28.426057,52.1860896 28.5064814,51.8867348 28.5758128,51.6003955 C26.2675395,50.6084342 24.6914058,49.7661503 24.8892314,48.2758841 C24.9705802,47.6883307 25.4179988,47.2272128 25.160086,46.6926507 C25.0916791,46.5624964 25.0121791,46.4704588 24.9243593,46.404452 C24.9206616,46.3412342 24.8994,46.2761571 24.8790628,46.2147986 C24.7191384,45.7527511 24.2264233,45.5194031 23.7484988,45.6867443 C23.9574174,45.7192828 24.1469233,45.8698899 24.2264233,46.0939411 C24.2532314,46.165526 24.2615512,46.2398998 24.2597023,46.3096253 C24.1099465,46.367265 23.9777547,46.4704588 23.9047256,46.5931756 C23.8492605,46.5002083 23.7614407,46.4267641 23.6597547,46.3802805 C23.5442023,46.3310078 23.4277256,46.3198517 23.3094,46.3412342 C23.2465395,46.2398998 23.1522488,46.1543699 23.0440919,46.0790664 C22.63365,45.8261952 22.1030337,45.9609979 21.8414233,46.3895772 C22.0327779,46.2845241 22.2555628,46.2761571 22.4496907,46.3932959 C22.5680163,46.4602324 22.6502895,46.5615667 22.702057,46.6777759 C22.6475163,46.7279782 22.6077663,46.7902664 22.5772605,46.8618512 C22.5060802,47.0161769 22.5060802,47.169573 22.5643186,47.3071647 C22.4469174,47.2941492 22.3322895,47.3155317 22.23615,47.3620154 C22.1511035,47.3238988 22.0558884,47.3006569 21.9431093,47.3006569 C21.4568651,47.2764854 21.054743,47.6613701 21.0399523,48.165253 C21.1508826,47.9783887 21.350557,47.8612499 21.5816616,47.8705466 C21.7036849,47.8742653 21.8220105,47.9142413 21.9246209,48.0025602 C21.6888942,48.5064431 22.1797605,49.2306585 22.8730744,49.3905623 C24.0886849,49.6638862 23.5155453,50.9877409 23.4896616,51.098372 C23.4591558,51.2313152 23.4684,51.3512431 23.5266384,51.4460698 C23.4628535,51.5018501 23.3824291,51.5418261 23.2936849,51.5659976 C23.0773709,51.6254967 22.8536616,51.5548415 22.702057,51.4218982 C22.8416442,51.8913832 23.3066267,52.1600588 23.7734581,52.0317639 C23.8529581,52.0066627 23.9324581,51.9731945 24.0064116,51.9276405 C24.1275105,52.0066627 24.2763419,52.0531464 24.4371907,52.0531464 C24.7967895,52.0531464 25.09815,51.8077126 25.1536151,51.4786083 L25.2312663,51.5325294 C26.8443767,52.6583636 26.5633535,54.4052196 27.7244233,55.3637126 C27.6005512,54.7575657 27.8732547,54.2852917 27.88065,54.2852917 C28.187557,55.3590643 29.2339988,55.4008996 29.2339988,55.4008996 C29.2339988,55.4008996 29.1295395,55.0169445 29.0713012,54.472156" id="Fill-34" fill="#FFFFFF"></path>
                <path d="M31.5367256,48.1959322 C31.3980628,48.5064431 31.8297663,48.7927824 31.5533651,48.9880138 C31.6199233,49.1200274 31.7179116,49.1916122 31.8519523,49.2427443 C32.0562488,49.2362365 32.2725628,49.2511113 32.480557,49.2827202 C32.57115,49.2111354 32.6340105,49.0865592 32.5914872,49.0363568 C32.49165,48.9294444 32.3252547,49.2269398 32.1699523,49.0298491 L31.5367256,48.1959322 Z M33.8181907,49.729893 C33.6416267,49.627629 33.4474988,49.5411694 33.2367314,49.4705142 C33.2062256,49.3663908 33.2062256,49.2269398 33.2533709,49.1999793 C33.3864872,49.1562847 33.4086733,49.4974747 33.6379291,49.399859 L34.5956267,48.9545456 C34.5678942,49.2957356 34.0363535,49.3505864 34.2064465,49.6545895 C34.0834988,49.729893 33.9596267,49.7503458 33.8181907,49.729893 Z M32.7532605,50.4466711 C32.7828419,50.341618 32.9279756,50.2802596 33.0795802,50.3146575 C33.1378186,50.3313916 33.1840395,50.3574224 33.2237895,50.3862423 C33.2718593,50.3667192 33.3393419,50.2440023 33.3624523,50.2003077 C33.5297721,49.7838141 33.019493,50.0645754 32.7088884,49.9892718 C32.4047547,49.9139683 32.0839814,49.4305382 32.036836,49.863766 C32.0303651,49.9167573 32.0331384,50.0562083 32.076586,50.1129184 C32.1302023,50.0952546 32.1782721,50.0952546 32.2402081,50.1129184 C32.383493,50.1426679 32.4768593,50.2672441 32.4472779,50.3750862 C32.4389581,50.4373743 32.3788709,50.4875767 32.303993,50.5080295 C32.3705512,50.5638099 32.4417314,50.6102935 32.5378709,50.6391134 C32.4472779,50.8789691 32.2457547,51.2108624 31.8436326,50.8789691 C31.4063826,50.4875767 30.9876209,50.3109388 30.7121442,50.4401633 C30.8803884,50.4345853 31.4313419,50.5814737 31.237214,51.5483338 C31.1068709,52.1665665 31.0551035,52.5970052 31.3074698,53.143653 C31.3093186,53.1510904 31.3934407,52.9056567 31.5367256,52.8266345 C31.4618477,53.2040818 31.5385744,53.5833884 31.7280802,53.9041257 C32.0617953,53.7116833 32.3197081,53.4169769 32.4250919,53.0395296 C32.5184581,53.1724729 32.4768593,53.4476562 32.4787081,53.4411484 C32.9732721,53.0627715 33.1267256,52.6788164 33.2857256,52.0624431 C33.575993,51.1178951 34.1241733,51.24619 34.2767023,51.3307903 C34.0908942,51.0918643 33.6416267,51.0537477 33.0712605,51.1773942 C32.5563593,51.2843066 32.5350977,50.9022109 32.5656035,50.6437618 C32.6589698,50.6632849 32.7440163,50.6614256 32.8244407,50.6409728 C32.7662023,50.5842627 32.7356965,50.5145372 32.7532605,50.4466711 Z M30.3812023,46.506716 C30.3812023,46.506716 30.8230744,46.5690041 30.7084465,46.8702182 C30.6298709,47.0542935 30.7759291,47.0877618 30.7796267,47.0877618 C30.7796267,47.0877618 30.919214,47.1314564 30.98115,46.9473811 C31.0449349,46.7744619 30.9256849,46.5690041 30.7371035,46.5160128 C30.5993651,46.4778962 30.3812023,46.506716 30.3812023,46.506716 Z M35.7585453,48.3223678 C35.7585453,48.3223678 35.6060163,48.2954073 35.6309756,48.0983165 C35.6633302,47.920749 35.8667023,47.8054695 36.0617547,47.8519532 C36.2152081,47.8854214 36.3889988,48.0034899 36.3889988,48.0034899 C36.3889988,48.0034899 35.9591442,47.8547422 35.932336,48.1717607 C35.9184698,48.3688515 35.762243,48.3223678 35.7585453,48.3223678 Z M30.7796267,57.7511134 C30.7916442,57.5382182 30.6927314,57.2239887 30.4477605,56.6977937 C30.2212779,56.219012 30.2064872,55.7262852 30.2416151,55.4362271 C30.0206791,55.7207071 29.8699988,56.0972248 29.8699988,56.0972248 C29.1360105,54.8040494 29.3717372,53.5982632 29.4447663,53.4039615 C29.1933244,53.6057006 28.9575977,53.9673435 28.9575977,53.9673435 C28.7754872,52.9093754 29.0592837,52.09963 29.3051791,51.6171296 C28.9881035,51.7119563 28.7616209,51.8913832 28.7616209,51.8913832 C28.9899523,50.9765848 29.3458535,50.3946094 29.5889756,50.0961843 C29.2284523,50.1603317 28.9797837,50.290486 28.9797837,50.290486 C29.3319872,49.015904 30.2212779,48.0016305 30.5818012,47.6613701 C30.3377547,47.6371986 29.9892488,47.5014664 29.9568942,47.0403484 C29.9097488,46.404452 29.5353593,46.0539652 29.5353593,46.0539652 C30.2064872,46.2203767 30.1935453,46.1004488 30.6834872,46.1413545 C30.9598884,46.165526 31.1419988,46.2761571 31.2797372,46.4462873 C31.5505919,46.1032379 31.85565,45.8903427 31.8621209,45.8903427 C31.8223709,45.9963254 31.7428709,46.2008535 31.7243826,46.4202564 C32.1329756,45.84107 32.7144349,45.4692007 32.7162837,45.4710601 C32.6645163,45.5491526 32.5656035,45.8168985 32.5110628,46.122761 C32.7828419,45.84107 33.502964,45.1717053 34.2563651,45.3790224 C33.615743,45.5956363 33.6092721,46.4909116 34.1824116,46.6377999 C34.4726791,46.7103145 34.7444581,46.546692 34.8036209,46.2845241 C34.8221093,46.213869 34.8221093,46.1301984 34.8063942,46.0539652 C35.1687663,46.4425686 35.2140628,47.0570826 35.2085163,47.3313362 C35.3166733,47.1165816 35.3453302,46.8813743 35.3573477,46.7642355 C35.3619698,46.7679542 35.5505512,47.1035662 35.6171093,47.550739 C35.8269523,47.4428969 36.0451151,47.4270925 36.3242895,47.54795 C36.7652372,47.741322 36.6949814,47.8417267 37.3642605,48.0034899 C37.3642605,48.0034899 36.8798651,48.1448002 36.5359814,48.688659 C36.278993,49.1144494 35.8546849,49.015904 35.6309756,48.9099213 C35.7788826,49.3226962 36.0774698,50.4373743 35.8158593,51.9908582 C35.8158593,51.9908582 35.654086,51.772385 35.364743,51.5418261 C35.444243,51.9155547 35.4941616,52.5793414 35.2593593,53.4848431 C35.2593593,53.4848431 35.137336,53.2105895 34.8683302,52.9883976 C34.8452198,53.5536389 34.6982372,54.4526329 34.0215628,55.322807 C34.0215628,55.322807 33.9947547,54.9713905 33.9060105,54.6757545 C33.785836,55.0727249 33.3670744,56.0219213 32.310464,56.7108091 C32.310464,56.7108091 32.3224814,56.3779861 32.2623942,56.076772 C32.1385221,56.3500959 31.8990977,56.7005827 31.5505919,56.9636802 C31.0883826,57.3318308 30.8646733,57.5586711 30.7833244,57.7511134 L30.7796267,57.7511134 Z" id="Fill-36" fill="#FFFFFF"></path>
                <path d="M32.0134483,51.2314082 C31.8350355,51.3782966 31.7980587,51.6190819 31.7980587,51.6190819 C31.7425936,51.4247802 31.7620064,51.2583687 31.7888145,51.1626124 C31.6852797,51.1142694 31.5965355,51.058489 31.482832,51.0166537 C31.6455297,51.3355316 31.3487913,52.145277 31.5993087,52.6240587 C31.6390587,52.4994825 31.6880529,52.3823436 31.7620064,52.2772906 L31.7425936,52.3423677 C31.6935994,52.5487551 31.7250297,52.7328304 31.8100762,52.8471802 C31.8618436,52.8769298 31.9173087,52.90482 31.9801692,52.9159761 C32.0430297,52.9345695 32.1021924,52.9345695 32.1622797,52.9345695 C32.2916983,52.8657737 32.4054017,52.7207447 32.4506983,52.5245836 L32.4673378,52.4557878 C32.4784308,52.5859421 32.4784308,52.7030809 32.4599424,52.8323055 C32.9064366,52.5394584 33.0275355,51.6860184 33.3131808,51.4684749 C33.2059483,51.4582485 33.083925,51.4638265 32.9655994,51.4554595 C32.9461866,51.5577235 32.885175,51.7120493 32.7474366,51.8617266 C32.7474366,51.8617266 32.8269366,51.630238 32.7400413,51.4182725 C32.6161692,51.3782966 32.5080122,51.2890479 32.4275878,51.1142694 C32.2750587,51.2276895 32.1419424,51.251861 32.0134483,51.2314082" id="Fill-38" fill="#EE3338"></path>
                <path d="M56.9492703,54.611514 C56.9187645,54.3921112 56.7801017,54.2098952 56.5878227,54.0750926 C57.1766773,53.5944516 57.1923924,52.8720955 57.1923924,52.8665174 C56.8817878,53.1509974 56.6192529,53.2904484 56.3604157,53.3397211 C57.0860843,52.6582706 57.1369273,51.7053556 57.1369273,51.7053556 C56.1940203,53.1575052 55.0745494,51.7258084 52.9437645,52.805159 C52.3641541,53.0980061 51.803032,53.0394367 51.257625,52.8953373 C55.1688401,52.2324803 56.573032,49.8850555 55.215061,48.9786241 C54.6021715,48.577935 53.5381657,48.6392934 52.1811192,49.1719961 C50.9340785,49.6572855 49.8580552,50.0068427 48.9280901,50.2401906 C48.0748517,50.3573295 47.4554913,50.2838853 46.8906715,49.6944725 C46.8555436,50.2801666 47.2373285,50.4772573 47.2373285,50.4772573 C47.2373285,50.4772573 46.2648401,50.4038131 45.7000203,49.345845 C45.4180727,50.1379266 45.8922994,50.4995695 45.8922994,50.4995695 C44.6618983,50.1128254 44.8874564,48.916336 43.7402529,48.8549776 C43.8197529,48.9023909 43.8789157,48.9739757 43.926061,49.0576463 C43.9796773,49.1422466 44.012032,49.243581 44.023125,49.3504934 C44.0277471,49.6833164 43.7568924,49.9408359 43.4277994,49.9510623 C43.3908227,49.9510623 43.3529215,49.9510623 43.3085494,49.9473436 C43.3020785,49.9408359 43.2993052,49.9408359 43.2956076,49.9408359 C43.0127355,49.9027193 42.6078401,49.7344484 42.5680901,48.9869912 L42.5606948,48.867993 C42.574561,48.2181514 43.1430785,47.6594178 43.9519448,47.4307182 C44.1109448,47.3888829 44.272718,47.3535553 44.4169273,47.3228761 C44.9503169,47.2819705 45.4180727,47.3619224 45.7850669,47.4372259 C46.6225901,47.6166529 47.463811,48.114028 48.2791483,47.7746973 C48.139561,47.7588929 47.657939,47.6919564 47.4222122,47.1471679 C49.2054157,47.6659255 49.605689,46.5531067 49.605689,46.5531067 C49.605689,46.5531067 48.890189,46.9342727 48.2948634,46.6219025 C49.7462006,45.8130868 48.6193343,44.3516406 48.6193343,44.3516406 C48.6193343,44.3516406 49.1212936,46.2667674 46.0152471,46.3476489 C44.2080087,46.3997106 42.9850029,46.7232369 42.3434564,47.5134591 C41.9866308,47.8946252 41.7638459,48.3817739 41.7869564,48.9600306 C41.8026715,49.3133065 41.9015843,49.6126612 42.0504157,49.8878445 C41.8636831,49.9510623 41.4375262,49.9808118 40.7405145,49.5011004 C40.9549797,50.0310142 41.774939,50.8937509 43.9926192,51.2247146 C46.8074738,51.849455 49.8709971,50.9179224 52.4575203,49.8897038 C53.4447994,49.5011004 54.1057587,49.4462497 54.4893924,49.5131862 C54.7362122,49.5884897 54.8684041,49.7474638 54.8767238,49.9826712 C54.8831948,50.0737791 54.857311,50.1704652 54.8314273,50.2578544 C54.7889041,50.3378063 54.7232703,50.4214769 54.6502413,50.5144442 C53.812718,51.5547485 51.1457703,52.8321195 46.4330843,52.099537 C45.4162238,51.9619454 44.5823983,51.9228991 43.4148576,51.8671187 C40.5907587,51.7258084 37.1140203,52.3617049 35.6922645,52.6666377 C35.664532,53.1733096 35.5878052,53.7608631 35.4038459,54.3502759 C35.4038459,54.3502759 35.2651831,54.0555695 35.0553401,53.7376212 C34.9730669,54.3651506 34.7114564,55.3543229 33.829561,56.3230424 C33.829561,56.3230424 33.8193924,56.0236876 33.785189,55.6750602 C33.3571831,56.3165347 32.7868169,56.9589389 32.0112297,57.4553844 C32.0112297,57.4553844 32.0398866,57.2852542 32.0657703,57.0481875 C31.8346657,57.35405 31.6128052,57.5464923 31.393718,57.732427 C31.1071483,57.9620563 30.8584797,58.1991229 30.649561,58.642577 L30.5497238,58.8461755 L30.5340087,58.6174759 C30.490561,57.9323067 30.2825669,57.4851339 30.1115494,57.1058272 C30.0412936,56.9264003 29.9793576,56.7571998 29.934061,56.5982257 C29.8573343,56.7711449 29.8138866,56.8975804 29.8138866,56.8975804 C29.6650552,56.651217 29.5550494,56.4141504 29.4598343,56.1464045 L29.2000727,56.2635433 C28.5400378,56.497821 25.1714564,57.6710685 25.2250727,55.5012113 C25.2509564,54.1745676 24.726811,53.9421493 24.3764564,53.9244855 C24.3505727,53.8882283 24.324689,53.8510414 24.2932587,53.8129248 C23.9632413,53.4605786 23.4196831,53.4345478 23.0480669,53.7692301 C23.2588343,53.7143794 23.4871657,53.7794565 23.6387703,53.9551648 C23.682218,54.0016484 23.7099506,54.0481321 23.7312122,54.1039125 C23.6387703,54.179216 23.5620436,54.278691 23.5093517,54.3967595 C23.2042936,54.3251747 22.8604099,54.3967595 22.6440959,54.5873425 C22.5498052,54.5678194 22.449968,54.5585227 22.3510552,54.5678194 C21.8796017,54.611514 21.5273983,55.0419527 21.5717703,55.5495543 C21.6577413,55.3431668 21.8472471,55.1925598 22.0783517,55.172107 C22.1855843,55.1655993 22.2854215,55.177685 22.3824855,55.226028 C22.3584506,55.2873865 22.3473576,55.3496746 22.3473576,55.4231187 C22.3445843,55.6313655 22.4351773,55.8265969 22.5766134,55.9623292 C22.3982006,56.0525075 22.2595378,56.2300751 22.2086948,56.4476186 C22.2012994,56.5108364 22.1920552,56.5740542 22.1726424,56.640061 C21.7215262,56.7999648 21.4968924,57.3159334 21.6799273,57.783559 C21.7104331,57.5622968 21.8509448,57.3847292 22.0681831,57.2982696 C22.1504564,57.2675904 22.2308808,57.254575 22.3122297,57.2592233 C22.5229971,57.6794356 23.1442064,57.8021525 23.4585087,57.5492814 C23.8504622,57.2517859 24.1444273,57.501868 24.324689,57.8123789 C24.6852122,58.4361896 25.2167529,58.6593112 25.806532,58.7569268 C25.8120785,58.7810984 25.8185494,58.7996918 25.8240959,58.827582 C25.874939,58.9874858 25.9803227,59.1009059 26.1051192,59.1780688 C26.0662936,59.2366382 26.0219215,59.2933483 25.9618343,59.3407616 C25.7797238,59.4913687 25.5412238,59.5090325 25.3544913,59.4486037 C25.6503052,59.8279104 26.197561,59.8836908 26.5793459,59.5936327 C26.6385087,59.5508678 26.6912006,59.5015951 26.7355727,59.4439553 C26.8372587,59.4579004 26.9407936,59.4504631 27.0471017,59.4114168 C27.3087122,59.3230978 27.4862006,59.1074136 27.5351948,58.8833624 C28.0695087,58.9363538 28.5631483,58.9874858 29.0179622,59.0302508 C29.7935494,59.1669127 29.8268285,59.1845765 30.6292238,59.5685316 C31.4824622,59.9589943 32.0824099,60.9453776 32.0824099,60.9453776 C32.1064448,60.5995391 32.0879564,60.2555601 32.0130785,59.9496976 C32.9143866,60.2453336 33.9220029,60.2313885 34.4516948,59.4207135 C34.0717587,59.496017 33.829561,59.0339695 34.1734448,58.5793593 C34.8103692,57.7844887 34.5043866,56.8576045 34.5043866,56.8576045 C34.898189,57.6338816 34.8223866,58.20749 34.6781773,58.5040557 C35.8263052,58.5338053 36.7877006,58.1526393 38.9425203,56.4048536 C40.5602529,55.0884364 41.7869564,54.5799052 42.5680901,54.3614319 C42.0901657,55.4788991 43.1726599,56.0636636 44.5722297,56.1873101 C45.1296541,56.2746994 45.6833808,56.3035193 45.8617936,56.3723151 C45.9505378,56.4048536 46.1640785,56.4699308 46.4229157,56.5443046 C46.6198169,56.742325 46.5689738,56.9589389 46.5689738,56.9589389 C45.0270436,57.6710685 43.682939,57.2238957 43.0247529,56.7860197 C42.1428576,56.218919 41.6797238,56.3899789 41.4199622,56.6977007 C40.9457355,56.6846853 40.5371424,57.0584139 40.525125,57.5622968 C40.6369797,57.3921666 40.8440494,57.2610827 41.0770029,57.2675904 C41.1398634,57.2722387 41.1907064,57.2852542 41.2544913,57.3047773 C41.2239855,57.4823449 41.2739041,57.6617718 41.4023983,57.8198163 L41.4329041,57.8551438 C41.4023983,57.9127836 41.3681948,57.9834387 41.3469331,58.0559533 C41.337689,58.0922105 41.331218,58.1312568 41.3219738,58.1693734 C41.2877703,58.1786701 41.258189,58.1981933 41.2239855,58.2121384 C40.8116948,58.4426973 40.6591657,58.9809781 40.9170785,59.4160652 C40.9124564,59.1938733 41.0252355,58.9967825 41.2147413,58.8796437 C41.297939,58.8415271 41.3802122,58.8173556 41.468032,58.8061995 C41.4818983,58.827582 41.4994622,58.8508238 41.5234971,58.870347 C41.5992994,58.9716814 41.7056076,59.0479146 41.8285552,59.0832421 C41.854439,59.0943982 41.8738517,59.0962576 41.8978866,59.103695 C41.9136017,59.2096777 41.9413343,59.3138011 41.9746134,59.4439553 C41.7638459,59.874394 41.9311657,60.4024484 42.382282,60.6348667 C42.2574855,60.4526508 42.2380727,60.207217 42.3406831,60.0091967 C42.3785843,59.9301744 42.4285029,59.8771831 42.4848924,59.8344181 C42.9360087,60.0742738 43.5535203,59.6624285 43.6302471,59.5973514 C45.4901773,57.9620563 46.288875,59.4067684 46.9923576,59.3203088 C47.0182413,59.3863156 47.0367297,59.4551114 47.0478227,59.5266963 C47.0783285,59.7572552 46.9794157,59.9608536 46.8250378,60.0891485 C47.3075843,60.0277901 47.6320552,59.5973514 47.5701192,59.1102027 L47.5590262,59.0497739 C47.7124797,58.9121823 47.799375,58.7197399 47.8012238,58.5291569 C48.1136773,58.4361896 48.4778983,58.2762858 48.855061,58.0150476 C48.9927994,58.2121384 49.0260785,58.5096338 48.8800203,58.9716814 C48.8800203,58.9716814 49.5169448,58.5096338 49.4189564,57.5353363 C49.5696366,57.777981 49.6417413,58.0968589 49.5696366,58.5747109 C49.5696366,58.5747109 50.2435378,58.0457268 50.1205901,57.1523109 L50.1178169,57.075148 C50.0309215,56.4411109 50.462625,56.3565106 50.6974273,56.3565106 L50.8582762,56.3723151 C50.4348924,55.8637838 49.4374448,55.9307203 48.9428808,55.9307203 C48.2393983,55.9418764 47.9796366,55.5086487 48.2273808,55.2306764 C48.2273808,55.2306764 47.9519041,55.0419527 47.5238983,54.8104641 C48.3725145,55.0679836 49.219282,55.3459559 49.9911715,55.4788991 C51.8547994,55.7931287 52.3410436,55.3031909 53.0195669,54.699833 C53.4309331,54.318667 53.8487703,53.9616725 54.2407238,53.8417446 C53.5640494,54.7109891 54.2841715,55.7838319 54.3414855,56.2970116 C54.4052703,56.9412751 53.9171773,56.9505718 53.4688343,56.9617279 C52.6645901,56.9747433 52.3863401,57.21181 52.3336483,57.5176725 C52.2809564,57.5306879 52.2236424,57.5530001 52.1700262,57.5846089 C51.7429448,57.8151679 51.5774738,58.3367146 51.8224448,58.7969028 C51.8261424,58.5691329 51.9416948,58.3664641 52.1515378,58.261411 C52.2236424,58.2223648 52.3012936,58.1991229 52.3863401,58.1981933 C52.3475145,58.4668688 52.5305494,58.7290367 52.8272878,58.8173556 C52.9114099,58.8415271 52.9983052,58.8461755 53.0768808,58.8415271 C53.0565436,58.9744704 53.0768808,59.1009059 53.1443634,59.2245525 C53.1952064,59.3175198 53.2691599,59.390964 53.3542064,59.4402367 L53.3320203,59.5015951 C53.1822645,59.9515569 53.4447994,60.4526508 53.9236483,60.6060468 C53.7812878,60.440565 53.7202762,60.207217 53.784061,59.9878142 C53.819189,59.8771831 53.8792762,59.7851454 53.9633983,59.7154199 C54.148282,59.8018795 54.386782,59.7925828 54.5781366,59.6568505 C54.7038576,59.5713206 54.7981483,59.4486037 54.857311,59.3072934 C54.9386599,59.4067684 55.044968,59.4885797 55.1799331,59.5378523 C55.3287645,59.5936327 55.4896134,59.6010701 55.6375203,59.5713206 C55.6439913,59.6010701 55.658782,59.6345384 55.6754215,59.6680066 C55.8954331,60.0891485 56.4112587,60.2685755 56.8762413,60.0370868 C56.6497587,60.0277901 56.4510087,59.9013546 56.3410029,59.7098419 C56.2753692,59.5750393 56.2642762,59.4262916 56.2901599,59.2896296 L56.3502471,59.2580207 C56.5961424,59.103695 56.9298576,58.7327553 56.5776541,58.0540939 C56.1256134,57.171834 55.7687878,57.3047773 55.9629157,56.4383219 C56.016532,56.167787 56.175532,55.837753 56.305875,55.4379935 C56.5037006,55.405455 56.6737936,55.3078393 56.7958169,55.177685 C56.8281715,55.1832631 56.8660727,55.1962785 56.8984273,55.2148719 C57.1054971,55.3078393 57.2265959,55.5160861 57.2580262,55.7141065 C57.4429099,55.3059799 57.3023983,54.8513697 56.9492703,54.611514" id="Fill-40" fill="#FFFFFF"></path>
                <path d="M24.7895791,105.334019 C22.7586314,105.334019 21.2462826,103.742419 21.2462826,101.720379 C21.2462826,99.7178633 22.72905,98.0862868 24.8394977,98.0862868 C26.1235151,98.0862868 26.9000267,98.5371784 27.5665326,99.1777232 L26.7807767,100.088803 C26.2233523,99.5681859 25.6252535,99.2176991 24.8293291,99.2176991 C23.495393,99.2176991 22.5303,100.318432 22.5303,101.699927 C22.5303,103.081421 23.495393,104.202607 24.8293291,104.202607 C25.6853407,104.202607 26.2335209,103.85212 26.8297709,103.291527 L27.6164512,104.092905 C26.8898581,104.853378 26.0930093,105.334019 24.7895791,105.334019" id="Fill-42" fill="#FFFFFF"></path>
                <path d="M32.1244709,99.2176062 C30.7406163,99.2176062 29.7755233,100.328566 29.7755233,101.699834 C29.7755233,103.072031 30.7609535,104.202514 32.1448081,104.202514 C33.5286628,104.202514 34.4937558,103.091554 34.4937558,101.720286 C34.4937558,100.349018 33.5083256,99.2176062 32.1244709,99.2176062 M32.1244709,105.333926 C29.9853663,105.333926 28.4915058,103.70235 28.4915058,101.720286 C28.4915058,99.7382232 30.0047791,98.0861939 32.1448081,98.0861939 C34.2839128,98.0861939 35.7777733,99.7177704 35.7777733,101.699834 C35.7777733,103.681897 34.2645,105.333926 32.1244709,105.333926" id="Fill-44" fill="#FFFFFF"></path>
                <path d="M39.9477331,99.6280569 L38.7524599,102.431022 L41.1522506,102.431022 L39.9477331,99.6280569 Z M43.5991866,105.213533 L42.3068494,105.213533 L41.5987448,103.522458 L38.3050413,103.522458 L37.5876924,105.213533 L36.3341808,105.213533 L39.3995529,98.1563842 L40.534739,98.1563842 L43.5991866,105.213533 Z" id="Fill-46" fill="#FFFFFF"></path>
                <path d="M47.7005547,105.334019 C45.669607,105.334019 44.1572581,103.742419 44.1572581,101.720379 C44.1572581,99.7178633 45.6400256,98.0862868 47.7504733,98.0862868 C49.0335663,98.0862868 49.8100779,98.5371784 50.4775081,99.1777232 L49.6908279,100.088803 C49.1343279,99.5681859 48.5353047,99.2176991 47.7403047,99.2176991 C46.4063686,99.2176991 45.4412756,100.318432 45.4412756,101.699927 C45.4412756,103.081421 46.4063686,104.202607 47.7403047,104.202607 C48.5963163,104.202607 49.1435721,103.85212 49.7416709,103.291527 L50.5274267,104.092905 C49.7999093,104.853378 49.0039849,105.334019 47.7005547,105.334019" id="Fill-48" fill="#FFFFFF"></path>
                <polygon id="Fill-50" fill="#FFFFFF" points="53.1341948 102.260427 53.1341948 105.213998 51.9102645 105.213998 51.9102645 98.2061217 53.1341948 98.2061217 53.1341948 101.119718 56.4584041 101.119718 56.4584041 98.2061217 57.6832587 98.2061217 57.6832587 105.213998 56.4584041 105.213998 56.4584041 102.260427"></polygon>
                <g id="Group-54" transform="translate(0.000000, 107.842092)">
                    <mask id="mask-2" fill="white">
                        <use xlink:href="#path-1"></use>
                    </mask>
                    <g id="Clip-53"></g>
                    <path d="M3.0784064,1.7122721 L1.70472035,1.7122721 L1.70472035,6.47684727 L3.0784064,6.47684727 C4.54176105,6.47684727 5.49576105,5.48581563 5.49576105,4.10525093 C5.49576105,2.72282688 4.54176105,1.7122721 3.0784064,1.7122721 M3.0784064,7.59803315 L0.479865698,7.59803315 L0.479865698,0.591086222 L3.0784064,0.591086222 C5.26742965,0.591086222 6.78162733,2.10273485 6.78162733,4.08479812 C6.78162733,6.06686139 5.26742965,7.59803315 3.0784064,7.59803315" id="Fill-52" fill="#FFFFFF" mask="url(#mask-2)"></path>
                </g>
                <polygon id="Fill-55" fill="#FFFFFF" points="13.5286814 109.534376 9.58603605 109.534376 9.58603605 111.356535 13.0812628 111.356535 13.0812628 112.457268 9.58603605 112.457268 9.58603605 114.339856 13.5786 114.339856 13.5786 115.440589 8.36303023 115.440589 8.36303023 108.432713 13.5286814 108.432713"></polygon>
                <polygon id="Fill-57" fill="#FFFFFF" points="20.0772628 108.433085 21.4010302 108.433085 18.5048267 115.490234 17.4297279 115.490234 14.5326 108.433085 15.8868733 108.433085 17.9871523 113.818682"></polygon>
                <polygon id="Fill-59" fill="#FFFFFF" points="27.8598506 109.534376 23.9181297 109.534376 23.9181297 111.356535 27.4133564 111.356535 27.4133564 112.457268 23.9181297 112.457268 23.9181297 114.339856 27.9106936 114.339856 27.9106936 115.440589 22.6941994 115.440589 22.6941994 108.432713 27.8598506 108.432713"></polygon>
                <polygon id="Fill-61" fill="#FFFFFF" points="29.4622378 108.433085 30.686168 108.433085 30.686168 114.318846 34.349639 114.318846 34.349639 115.440032 29.4622378 115.440032"></polygon>
                <g id="Group-65" transform="translate(34.871556, 107.842092)">
                    <mask id="mask-4" fill="white">
                        <use xlink:href="#path-3"></use>
                    </mask>
                    <g id="Clip-64"></g>
                    <path d="M3.77709208,1.6019199 C2.39323742,1.6019199 1.4281444,2.71287937 1.4281444,4.08414735 C1.4281444,5.45634499 2.41265021,6.58682761 3.79650487,6.58682761 C5.18035952,6.58682761 6.14637696,5.47586813 6.14637696,4.10460016 C6.14637696,2.73333218 5.16094673,1.6019199 3.77709208,1.6019199 M3.77709208,7.7182399 C1.63706301,7.7182399 0.143202541,6.08666342 0.143202541,4.10460016 C0.143202541,2.12253689 1.65740021,0.470507608 3.79650487,0.470507608 C5.93653394,0.470507608 7.42946998,2.10208408 7.42946998,4.08414735 C7.42946998,6.06621061 5.91619673,7.7182399 3.77709208,7.7182399" id="Fill-63" fill="#FFFFFF" mask="url(#mask-4)"></path>
                </g>
                <path d="M46.5306105,109.554364 L45.1070058,109.554364 L45.1070058,112.077497 L46.5306105,112.077497 C47.4559535,112.077497 48.0337151,111.566176 48.0337151,110.81593 C48.0337151,109.984802 47.4467093,109.554364 46.5306105,109.554364 M46.4908605,113.188456 L45.1070058,113.188456 L45.1070058,115.440125 L43.8830756,115.440125 L43.8830756,108.433178 L46.6304477,108.433178 C48.2528023,108.433178 49.2779826,109.354484 49.2779826,110.785251 C49.2779826,112.367555 48.0235465,113.188456 46.4908605,113.188456" id="Fill-66" fill="#FFFFFF"></path>
                <polygon id="Fill-68" fill="#FFFFFF" points="54.0550081 113.718835 54.0152581 113.718835 51.8354791 110.435229 51.8354791 115.440589 50.6309616 115.440589 50.6309616 108.433643 51.9343919 108.433643 54.0550081 111.746998 56.1747 108.433643 57.4790547 108.433643 57.4790547 115.440589 56.2551244 115.440589 56.2551244 110.415706"></polygon>
                <polygon id="Fill-70" fill="#FFFFFF" points="64.5350494 109.534376 60.5933285 109.534376 60.5933285 111.356535 64.0876308 111.356535 64.0876308 112.457268 60.5933285 112.457268 60.5933285 114.339856 64.584968 114.339856 64.584968 115.440589 59.3693983 115.440589 59.3693983 108.432713 64.5350494 108.432713"></polygon>
                <polygon id="Fill-72" fill="#FFFFFF" points="71.0042233 108.433085 72.2087407 108.433085 72.2087407 115.440032 71.1835605 115.440032 67.3407523 110.455124 67.3407523 115.440032 66.1371593 115.440032 66.1371593 108.433085 67.2714209 108.433085 71.0042233 113.278541"></polygon>
                <polygon id="Fill-74" fill="#FFFFFF" points="77.0453913 115.440589 75.8112924 115.440589 75.8112924 109.574352 73.6000831 109.574352 73.6000831 108.433643 79.2556762 108.433643 79.2556762 109.574352 77.0453913 109.574352"></polygon>
            </g>
        </g>
    </g>
</svg>