<?xml version="1.0" encoding="UTF-8"?>
<svg width="35px" height="35px" viewBox="0 0 35 35" version="1.1" xmlns="http://www.w3.org/2000/svg" xmlns:xlink="http://www.w3.org/1999/xlink">
    <!-- Generator: sketchtool 57.1 (101010) - https://sketch.com -->
    <title>7167A205-4BD2-414F-828C-468BD80ED8CE</title>
    <desc>Created with sketchtool.</desc>
    <g id="dashboard" stroke="none" stroke-width="1" fill="none" fill-rule="evenodd">
        <g id="Dashboard" transform="translate(-627.000000, -1118.000000)">
            <g id="play_recent_activities" transform="translate(627.000000, 1118.000000)">
                <g id="Group-8">
                    <circle id="Oval-Copy-2" fill="#BF2726" cx="17.5" cy="17.5" r="17.5"></circle>
                    <g id="play-button-copy-5" transform="translate(5.000000, 5.000000)" fill="#FFFFFF" fill-rule="nonzero">
                        <path d="M23.3231076,6.25095911 C19.8719473,0.273287226 12.2280683,-1.77493802 6.25094466,1.67689983 C0.27334339,5.12762326 -1.77493727,12.7712742 1.67685981,18.7487072 C5.12754248,24.7263791 12.7711827,26.7749228 18.748386,23.3234033 C24.7260668,19.8714859 26.7753027,12.228233 23.3231076,6.25095911 Z M17.4988965,21.1580047 C12.7175319,23.9195387 6.60206256,22.280863 3.84135723,17.4984867 C1.08001509,12.7170656 2.71922866,6.60160355 7.50075247,3.84142281 C12.2824355,1.08004806 18.3975865,2.71856457 21.158451,7.50078168 C23.9193951,12.2829192 22.2806592,18.3971076 17.4988965,21.1580047 Z M16.9990849,11.9919758 L10.4548075,8.17516528 C9.85844036,7.82698848 9.3774144,8.10535479 9.3807403,8.79518107 L9.41426944,16.3711707 C9.41729426,17.0608378 9.90421066,17.3415922 10.502329,16.9961218 L16.9965376,13.2466541 C17.5940192,12.9018206 17.5952928,12.3401526 16.9990849,11.9919758 Z" id="Shape"></path>
                    </g>
                </g>
            </g>
        </g>
    </g>
</svg>